<svg width="80" height="80" viewBox="0 0 80 80" fill="none" xmlns="http://www.w3.org/2000/svg"><circle cx="40" cy="40" r="40" fill="#00E493"/><g clip-path="url(#a)"><path d="m57.869 22.452-37.8 14.652c-1.522.683-2.036 2.049-.368 2.79l9.697 3.098 23.448-14.565c1.28-.915 2.59-.671 1.463.335L34.17 47.09l-.632 7.756c.586 1.198 1.659 1.203 2.343.608l5.572-5.3 9.541 7.183c2.217 1.319 3.423.468 3.9-1.95L61.152 25.6c.65-2.976-.458-4.287-3.283-3.147Z" fill="#000"/></g><defs><clipPath id="a"><path fill="#fff" transform="translate(18.666 18.667)" d="M0 0h42.667v42.667H0z"/></clipPath></defs></svg>