<svg width="80" height="80" viewBox="0 0 80 80" fill="none" xmlns="http://www.w3.org/2000/svg"><circle cx="40" cy="40" r="40" fill="#FFC8E0"/><path d="M39.999 20.834c5.207 0 5.857.019 7.9.114 2.041.096 3.431.416 4.654.892a9.345 9.345 0 0 1 3.396 2.21 9.407 9.407 0 0 1 2.21 3.396c.474 1.22.796 2.612.891 4.654.09 2.043.115 2.693.115 7.9 0 5.208-.019 5.858-.115 7.9-.095 2.042-.417 3.431-.89 4.654a9.36 9.36 0 0 1-2.21 3.397 9.422 9.422 0 0 1-3.397 2.21c-1.221.473-2.613.795-4.654.89-2.043.09-2.693.116-7.9.116-5.208 0-5.858-.02-7.9-.115-2.042-.096-3.432-.418-4.654-.891a9.373 9.373 0 0 1-3.397-2.21 9.4 9.4 0 0 1-2.21-3.397c-.475-1.22-.795-2.612-.891-4.653-.09-2.044-.115-2.693-.115-7.9 0-5.208.02-5.858.115-7.901.096-2.044.416-3.431.891-4.654a9.352 9.352 0 0 1 2.21-3.396 9.386 9.386 0 0 1 3.397-2.21c1.222-.476 2.61-.796 4.653-.892 2.043-.09 2.693-.114 7.9-.114Zm0 9.583a9.583 9.583 0 1 0 0 19.166 9.583 9.583 0 0 0 0-19.166Zm12.458-.48a2.396 2.396 0 1 0-4.791 0 2.396 2.396 0 0 0 4.791 0ZM39.999 34.25a5.75 5.75 0 1 1 0 11.5 5.75 5.75 0 0 1 0-11.5Z" fill="#000"/></svg>