<svg width="80" height="80" viewBox="0 0 80 80" fill="none" xmlns="http://www.w3.org/2000/svg"><circle cx="40" cy="40" r="40" fill="#00F"/><path fill-rule="evenodd" clip-rule="evenodd" d="M59.058 29.667c.297-.94 0-1.624-1.312-1.624h-4.364c-1.101 0-1.61.599-1.906 1.239 0 0-2.245 5.466-5.38 9.01-1.017 1.026-1.483 1.367-2.033 1.367-.297 0-.679-.341-.679-1.28v-8.756c0-1.11-.338-1.623-1.27-1.623H35.25c-.678 0-1.102.512-1.102 1.025 0 1.068 1.568 1.324 1.737 4.313v6.495c0 1.41-.25 1.667-.805 1.667-1.483 0-5.083-5.51-7.243-11.787C27.417 28.47 26.99 28 25.888 28h-4.405C20.212 28 20 28.598 20 29.238c0 1.154 1.483 6.961 6.905 14.648 3.6 5.25 8.727 8.072 13.344 8.072 2.797 0 3.135-.641 3.135-1.709v-3.971c0-1.281.254-1.495 1.144-1.495.635 0 1.78.341 4.364 2.861C51.857 50.634 52.365 52 54.017 52h4.364c1.27 0 1.864-.64 1.525-1.88-.381-1.237-1.822-3.03-3.686-5.166-1.017-1.195-2.542-2.519-3.008-3.16-.635-.854-.465-1.196 0-1.964-.042 0 5.296-7.602 5.846-10.167" fill="#fff"/></svg>