<svg width="73" height="55" viewBox="0 0 73 55" fill="none" xmlns="http://www.w3.org/2000/svg"><path d="M8.797 45.987c-.196-.716-.585-2.102-2.628-2.102-1.188 0-2.983.85-2.983 4.193 0 2.124.897 4.091 2.983 4.091 1.372 0 2.335-.828 2.628-2.28h2.467c-.489 2.58-2.17 4.373-5.14 4.373-3.148 0-5.402-2.14-5.402-6.218 0-4.145 2.384-6.248 5.432-6.248 3.545 0 4.975 2.446 5.11 4.19H8.797ZM14.284 48.503l2.9-3.33h2.825l-3.084 3.392 3.166 5.388h-2.76l-2.091-3.771-.957.998v2.773h-2.302v-8.78h2.303v3.33Z" fill="#BFDF14"/><path d="M28.513 49.545c0 3.165-2.122 4.638-4.473 4.638-2.346 0-4.486-1.451-4.486-4.617 0-3.169 2.14-4.622 4.486-4.622 2.35 0 4.473 1.436 4.473 4.601Zm-6.592 0c0 1.125.34 2.69 2.12 2.69 1.779 0 2.105-1.547 2.105-2.67 0-1.128-.326-2.676-2.106-2.676-1.778 0-2.12 1.531-2.12 2.656ZM37.163 45.172v8.78h-2.302V47.02h-2.463v2.707c0 3.359-1.011 4.418-2.629 4.418-.402 0-1.06-.065-1.4-.192v-1.717c.048.034.34.065.681.065.692 0 1.05-.34 1.05-3.014v-4.115h7.063ZM40.642 48.503l2.9-3.33h2.825l-3.086 3.392 3.169 5.388h-2.76l-2.088-3.771-.96.998v2.773H38.34v-8.78h2.302v3.33Z" fill="#BFDF14"/><path d="M54.87 49.545c0 3.165-2.119 4.638-4.47 4.638-2.35 0-4.486-1.451-4.486-4.617 0-3.169 2.136-4.622 4.487-4.622 2.35 0 4.47 1.436 4.47 4.601Zm-6.588 0c0 1.125.34 2.69 2.119 2.69 1.77 0 2.109-1.547 2.109-2.67 0-1.128-.338-2.676-2.11-2.676-1.778 0-2.118 1.531-2.118 2.656ZM55.617 45.173h3.964c1.96 0 3.395.802 3.395 2.268 0 1.01-.718 1.661-1.634 1.892.898.214 1.895.787 1.895 2.223 0 1.627-1.231 2.398-3.22 2.398h-4.4v-8.781Zm2.298 3.554h1.5c.764 0 1.305-.305 1.305-.994 0-.716-.52-.977-1.287-.977h-1.518v1.971Zm0 3.644h1.693c.85 0 1.377-.261 1.377-1.129 0-.767-.555-1.122-1.404-1.122h-1.666v2.251ZM72.45 49.545c0 3.165-2.116 4.638-4.47 4.638-2.347 0-4.49-1.451-4.49-4.617 0-3.169 2.143-4.622 4.49-4.622 2.354 0 4.47 1.436 4.47 4.601Zm-6.592 0c0 1.125.346 2.69 2.123 2.69 1.778 0 2.102-1.547 2.102-2.67 0-1.128-.324-2.676-2.102-2.676-1.776 0-2.123 1.531-2.123 2.656ZM17.454 39.811c1.962 0 6.792-.343 10.402-2.979v2h7.283l.007-8.792 3.042-3.148 6.62 11.94h8.738l-10.029-17.06 9.768-10.752H44.34l-9.194 10.55V1.303h-7.29V4.51C25.636 2.127 22.037.324 16.426.324 4.28.324 2 7.714 2 11.85c0 5.683 3.055 8.842 8.377 10.132l7.546 1.858c3.98.984 6.826 1.706 6.826 4.652 0 3.93-4.14 4.858-7.862 4.858-6.823 0-7.958-3.978-7.958-6.096H1.432c0 4.65 2.377 12.557 16.022 12.557Zm4.965-22.377-9.145-2.227c-1.555-.36-3.985-.984-3.985-3.925 0-3.362 3.569-4.5 6.566-4.5 6.823 0 7.446 3.984 7.648 5.687h4.353v6.995c-1.597-.933-3.482-1.538-5.437-2.03Z" fill="#BFDF14"/></svg>