<svg width="104" height="34" viewBox="0 0 104 34" fill="none" xmlns="http://www.w3.org/2000/svg"><path d="M75.275 3.177h-2.402v16.338h2.402V3.177ZM79.34 16.564a1.62 1.62 0 0 0-1.623 1.623 1.62 1.62 0 0 0 1.623 1.623 1.62 1.62 0 0 0 1.622-1.623 1.62 1.62 0 0 0-1.623-1.623ZM85.655 13.828c0-1.949 1.169-3.62 3.436-3.62h1.432V7.935H89.09c-1.774 0-2.585.565-3.412 1.503l-.016.024V7.934h-2.379v11.573h2.37v-5.679ZM70.264 7.934H67.86v11.573h2.403V7.934ZM69.062 6.017a1.62 1.62 0 0 0 1.623-1.623c0-.899-.732-1.622-1.623-1.622a1.62 1.62 0 0 0-1.623 1.622c0 .9.732 1.623 1.623 1.623ZM62.897 9.103c-.923-.938-2.338-1.463-3.746-1.463a6.09 6.09 0 0 0-6.086 6.085 6.09 6.09 0 0 0 6.086 6.085c1.407 0 2.895-.605 3.746-1.56v1.266h2.363V7.934h-2.363v1.17Zm-3.667 8.289c-2.068 0-3.643-1.591-3.643-3.667 0-2.076 1.575-3.651 3.643-3.651 2.068 0 3.699 1.48 3.699 3.65 0 2.172-1.63 3.668-3.699 3.668ZM97.174 19.81c1.074 0 2.442-.58 3.301-1.567.008.437 0 .835 0 1.265h2.362V7.934h-2.37v6.355c0 1.647-1.257 3.182-3.142 3.182-1.647 0-2.816-1.193-2.816-2.903V7.942h-2.37v6.825c.008 3.054 1.654 5.043 5.035 5.043ZM46.13 7.64c-1.575 0-3.118.716-4.057 1.845-.859-1.137-2.108-1.845-3.786-1.845a4.193 4.193 0 0 0-2.872 1.105v-.811h-2.362v11.574h2.362v-6.77a2.741 2.741 0 0 1 2.736-2.736 2.746 2.746 0 0 1 2.737 2.736v6.77h2.362v-6.77a2.741 2.741 0 0 1 2.737-2.736 2.746 2.746 0 0 1 2.736 2.736v6.77h2.362v-6.77c.016-3.102-1.996-5.098-4.955-5.098ZM77.327 24.861l-.016.016v-.899H75.8v6.793h1.512V27.59c0-1.145.684-2.123 2.013-2.123h.835v-1.488h-.835c-1.034 0-1.512.334-1.997.883ZM93.578 27.7c0 1.09-.876 1.743-1.727 1.743-.898 0-1.535-.653-1.535-1.583v-3.874h-1.52v3.985c0 1.885 1.083 2.975 2.96 2.975.612 0 1.336-.31 1.814-.78v.613h1.51v-6.793h-1.518l.016 3.715ZM84.096 23.81a3.568 3.568 0 0 0-3.564 3.565 3.568 3.568 0 0 0 3.564 3.563 3.563 3.563 0 1 0 0-7.127Zm0 5.617a2.057 2.057 0 0 1-2.052-2.052c0-1.13.922-2.053 2.052-2.053s2.052.923 2.052 2.053c0 1.129-.915 2.052-2.052 2.052ZM100.18 23.81c-.78 0-1.535.271-2.068.733v-.565H96.6v9.132h1.51v-2.944c.51.478 1.297.78 2.069.78a3.568 3.568 0 0 0 0-7.135Zm-.048 5.585c-1.185 0-2.044-.851-2.044-2.02 0-1.17.86-2.013 2.044-2.013 1.146 0 2.013.867 2.013 2.013 0 1.153-.867 2.02-2.013 2.02ZM72.785 24.543c-.533-.462-1.289-.732-2.068-.732a3.568 3.568 0 0 0-3.564 3.564 3.568 3.568 0 0 0 3.564 3.563c.772 0 1.559-.302 2.068-.78v.136c-.024 1.392-.7 2.1-2.02 2.1h-.016c-.748 0-1.408-.287-2.02-.883l-.056-.056-1.098 1.05.048.056c.564.66 1.71 1.416 3.086 1.416h.072c1.288-.024 3.452-.525 3.515-3.628V23.97h-1.511v.573Zm-2.02 4.852c-1.146 0-2.013-.867-2.013-2.02 0-1.146.867-2.013 2.013-2.013 1.185 0 2.044.843 2.044 2.013-.008 1.169-.86 2.02-2.044 2.02Z" fill="#333"/><path d="M17.143 13.518a3.82 3.82 0 0 1-7.636 0A3.82 3.82 0 0 1 13.325 9.7a3.824 3.824 0 0 1 3.818 3.818ZM13.325.83C6.325.83.63 6.526.63 13.526s5.695 12.687 12.695 12.687c2.562 0 5.035-.764 7.151-2.211l.04-.024-1.71-1.989-.032.016a10.09 10.09 0 0 1-5.449 1.6c-5.56 0-10.086-4.527-10.086-10.087S7.765 3.432 13.325 3.432c5.56 0 10.086 4.526 10.086 10.086 0 .724-.08 1.448-.238 2.171-.318 1.313-1.233 1.71-1.925 1.655-.692-.056-1.504-.549-1.512-1.758v-2.068c0-3.54-2.88-6.42-6.419-6.42-3.54 0-6.419 2.88-6.419 6.42s2.88 6.42 6.42 6.42a6.397 6.397 0 0 0 4.55-1.894 4.13 4.13 0 0 0 3.173 1.893c.111.008.23.016.342.016.923 0 1.837-.31 2.577-.867.764-.58 1.329-1.416 1.639-2.418.047-.16.143-.533.143-.533v-.016c.183-.803.27-1.607.27-2.601C26.02 6.526 20.325.83 13.325.83Z" fill="#FC2C38"/></svg>