<svg width="100" height="41" viewBox="0 0 100 41" fill="none" xmlns="http://www.w3.org/2000/svg"><g clip-path="url(#a)"><path d="M57.643 33.814c1.895 0 3.45-.886 4.54-2.536l.205 2.195h3.722V9.953H62.09v8.494c-1.01-1.527-2.51-2.332-4.269-2.332-3.886 0-6.6 3.287-6.6 8.973 0 5.603 2.633 8.726 6.424 8.726h-.001Zm24.748-1.486v-3.286c-1.255.845-3.354 1.595-5.318 1.595-2.945 0-4.063-1.39-4.227-4.227h9.708v-2.14c0-5.918-2.604-8.155-6.626-8.155-4.91 0-7.24 3.75-7.24 8.904 0 5.917 2.904 8.795 8.058 8.795 2.564 0 4.459-.682 5.645-1.486Zm-43.36-11.073c.75-.913 1.923-1.69 3.382-1.69 1.417 0 2.059.613 2.059 1.896v12.012h4.021V21.051c0-3.38-1.35-4.867-4.635-4.867-2.4 0-3.818.886-4.637 1.69h-.203l-.096-1.418h-3.928v17.017h4.022V21.256h.015Zm-7.308.614c0-4.131-2.1-5.685-6.368-5.685-2.646 0-4.773 1.118-5.986 1.99v3.491c1.282-1.05 3.245-2.263 5.522-2.263 1.923 0 2.809.681 2.809 2.508v1.077h-.64c-6.163 0-8.905 1.992-8.905 5.55 0 3.286 2.1 5.181 5.209 5.181 2.372 0 3.382-.777 4.159-1.595h.163c.028.437.164 1.009.3 1.35h3.927a42.68 42.68 0 0 1-.204-4.159V21.87h.014Zm63.05 11.604h4.54l-5.55-8.767 4.8-8.25H94.54l-2.905 5.14-3.245-5.14h-4.554l5.14 8.155-5.344 8.862h4.09l3.422-5.754 3.628 5.754ZM58.83 19.293c2.168 0 3.245 1.731 3.245 5.645 0 3.954-1.147 5.686-3.423 5.686-2.196 0-3.287-1.692-3.287-5.55.014-4.022 1.16-5.781 3.465-5.781Zm17.03 0c1.99 0 2.604 1.663 2.604 3.79v.341h-5.618c.096-2.713 1.077-4.132 3.014-4.132ZM27.7 29.409c-.505.75-1.459 1.35-2.877 1.35-1.691 0-2.536-.982-2.536-2.469 0-1.963 1.39-2.644 4.84-2.644h.573v3.763Z" fill="#000"/><path d="M12.197 29.478v3.995h-4.09v-6.736L.389 9.952h4.267l6.013 13.131c1.16 2.51 1.528 3.381 1.528 6.395Zm7.69-19.526-5.018 11.372h-4.158l5.017-11.372h4.159Z" fill="#FC3F1D"/></g><defs><clipPath id="a"><path fill="#fff" transform="translate(.389 .804)" d="M0 0h98.924v39.755H0z"/></clipPath></defs></svg>