<svg width="110" height="24" viewBox="0 0 110 24" fill="none" xmlns="http://www.w3.org/2000/svg"><path d="M49.627 12.24c0 4.109-2.462 6.057-5.544 6.057h-1.877v-2.475h1.739c1.86 0 3.1-1.018 3.1-3.6 0-2.545-1.171-3.81-3.152-3.81-1.911 0-3.271 1.195-3.271 3.758v10.324h-2.583V6.27h2.565v1.404h.362c.861-1.176 2.118-1.703 3.444-1.703 2.841 0 5.218 2.107 5.218 6.268Zm-16.875-1.07-1.705-.176c-1.343-.123-2.049-.492-2.049-1.3 0-.948.913-1.492 2.204-1.492 1.344 0 2.205.65 2.273 1.563h2.463c-.103-2.353-1.877-3.793-4.718-3.793-2.859 0-4.787 1.545-4.787 3.81 0 1.896 1.17 3.125 3.84 3.389l1.739.175c1.05.106 1.756.316 1.756 1.352 0 .93-.654 1.598-2.393 1.598-1.602 0-2.394-.737-2.67-1.738h-2.668c.258 2.265 2.135 4.02 5.338 4.02 3.013 0 4.959-1.615 4.959-4.02-.017-2.09-1.378-3.178-3.582-3.389Zm26.811 3.405c-.396.948-1.36 1.65-2.738 1.65-1.877 0-3.272-1.246-3.272-3.932 0-2.563 1.292-3.986 3.307-3.986 1.79 0 2.806 1.089 2.91 2.74h-4.615v1.896H62.3v-1.247c0-3.459-2.256-5.706-5.459-5.706-2.978 0-5.837 2.072-5.837 6.303s2.858 6.303 5.837 6.303c2.721 0 4.684-1.72 5.287-4.02h-2.566ZM19.08 5.972c-2.807 0-4.908 1.493-5.166 3.793h2.755c.19-.843.947-1.475 2.394-1.475 1.86 0 2.462 1 2.462 2.212v4.108c-1.05 1.23-2.273 1.791-3.495 1.791-1.275 0-2.153-.632-2.153-1.738 0-1.07.689-1.738 1.998-1.738h2.049v-1.879h-2.136c-2.927 0-4.58 1.493-4.58 3.793 0 2.142 1.584 3.757 4.202 3.757 1.463 0 2.755-.597 3.719-1.317h.362v1.018h2.565v-8.023c.07-2.967-1.911-4.302-4.976-4.302ZM1.67 18.297h2.567V1.848H1.67v16.45ZM12.45 6.271H9.316L5.58 11.292v1.563l3.84 5.442h3.185l-4.511-6.232L12.45 6.27Zm92.831 0-2.101 4.758c-.516 1.141-.998 2.265-1.153 3.02h-.362c-.155-.755-.654-1.844-1.171-2.985l-2.1-4.793h-2.842l4.942 10.797-2.445 5.443h2.738l7.335-16.24h-2.841Zm-10.297 0H91.85l-3.737 5.004v1.562l3.84 5.443h3.186l-4.495-6.233 4.34-5.776ZM78.9 11.169l-1.705-.175c-1.343-.123-2.05-.492-2.05-1.3 0-.948.913-1.492 2.205-1.492 1.343 0 2.204.65 2.273 1.563h2.462c-.103-2.353-1.877-3.793-4.718-3.793-2.858 0-4.787 1.545-4.787 3.81 0 1.896 1.171 3.125 3.84 3.389l1.74.175c1.05.106 1.756.316 1.756 1.352 0 .93-.655 1.598-2.394 1.598-1.601 0-2.393-.737-2.669-1.738h-2.669c.258 2.265 2.135 4.02 5.338 4.02 3.014 0 4.96-1.615 4.96-4.02 0-2.09-1.378-3.178-3.582-3.389Zm5.303 7.128h2.566V1.848h-2.566v16.45ZM67.26 7.675H66.9V6.271h-2.566v12.026h2.566v-6.285c0-2.142.964-3.389 2.893-3.389h1.618v-2.65h-.947c-1.773 0-2.531.684-3.203 1.702Z" fill="#009982"/></svg>