<svg width="316" height="160" viewBox="0 0 316 160" fill="none" xmlns="http://www.w3.org/2000/svg"><g clip-path="url(#a)"><mask id="b" style="mask-type:alpha" maskUnits="userSpaceOnUse" x="0" y="0" width="316" height="316"><circle cx="158" cy="158" r="158" fill="#D9D9D9"/></mask><g mask="url(#b)" fill="#000"><path d="M-175.44 4.84h.56c.94 0 1.7-.76 1.7-1.7s-.76-1.7-1.7-1.7h-.56c-.94 0-1.7.76-1.7 1.7s.76 1.7 1.7 1.7Zm15.14 0h.56c.94 0 1.7-.76 1.7-1.7s-.76-1.7-1.7-1.7h-.56c-.94 0-1.7.76-1.7 1.7s.76 1.7 1.7 1.7Zm15.14 0h.56c.94 0 1.7-.76 1.7-1.7s-.76-1.7-1.7-1.7h-.56c-.94 0-1.7.76-1.7 1.7s.76 1.7 1.7 1.7Zm15.14 0h.56c.94 0 1.7-.76 1.7-1.7s-.76-1.7-1.7-1.7h-.56c-.94 0-1.7.76-1.7 1.7s.76 1.7 1.7 1.7Zm15.14 0h.56c.94 0 1.7-.76 1.7-1.7s-.76-1.7-1.7-1.7h-.56c-.94 0-1.7.76-1.7 1.7s.76 1.7 1.7 1.7Zm15.14 0h.56c.94 0 1.7-.76 1.7-1.7s-.76-1.7-1.7-1.7h-.56c-.94 0-1.7.76-1.7 1.7s.76 1.7 1.7 1.7Zm15.14 0h.56c.94 0 1.7-.76 1.7-1.7s-.76-1.7-1.7-1.7h-.56c-.94 0-1.7.76-1.7 1.7s.76 1.7 1.7 1.7Zm15.14 0h.56c.94 0 1.7-.76 1.7-1.7s-.76-1.7-1.7-1.7h-.56c-.94 0-1.7.76-1.7 1.7s.76 1.7 1.7 1.7Zm15.14 0h.56c.94 0 1.7-.76 1.7-1.7s-.76-1.7-1.7-1.7h-.56c-.94 0-1.7.76-1.7 1.7s.76 1.7 1.7 1.7Zm15.14 0h.56c.94 0 1.7-.76 1.7-1.7s-.76-1.7-1.7-1.7h-.56c-.94 0-1.7.76-1.7 1.7s.76 1.7 1.7 1.7Zm15.14 0h.56c.94 0 1.7-.76 1.7-1.7s-.76-1.7-1.7-1.7h-.56c-.94 0-1.7.76-1.7 1.7s.76 1.7 1.7 1.7Zm15.14 0h.56c.94 0 1.7-.76 1.7-1.7s-.76-1.7-1.7-1.7h-.56c-.94 0-1.7.76-1.7 1.7s.76 1.7 1.7 1.7Zm15.14 0h.56c.94 0 1.7-.76 1.7-1.7s-.76-1.7-1.7-1.7h-.56c-.94 0-1.7.76-1.7 1.7s.76 1.7 1.7 1.7Zm15.14 0h.56c.94 0 1.7-.76 1.7-1.7s-.76-1.7-1.7-1.7h-.56c-.94 0-1.7.76-1.7 1.7s.76 1.7 1.7 1.7Zm15.14 0h.56c.94 0 1.7-.76 1.7-1.7s-.76-1.7-1.7-1.7h-.56c-.94 0-1.7.76-1.7 1.7s.76 1.7 1.7 1.7Zm15.14 0h.56c.94 0 1.7-.76 1.7-1.7s-.76-1.7-1.7-1.7h-.56c-.94 0-1.7.76-1.7 1.7s.76 1.7 1.7 1.7Zm15.14 0h.56c.94 0 1.7-.76 1.7-1.7s-.76-1.7-1.7-1.7h-.56c-.94 0-1.7.76-1.7 1.7s.76 1.7 1.7 1.7Zm15.14 0h.56c.94 0 1.7-.76 1.7-1.7s-.76-1.7-1.7-1.7h-.56c-.94 0-1.7.76-1.7 1.7s.76 1.7 1.7 1.7Zm15.14 0h.56c.94 0 1.7-.76 1.7-1.7s-.76-1.7-1.7-1.7h-.56c-.94 0-1.7.76-1.7 1.7s.76 1.7 1.7 1.7Zm15.14 0h.56c.94 0 1.7-.76 1.7-1.7s-.76-1.7-1.7-1.7h-.56c-.94 0-1.7.76-1.7 1.7s.76 1.7 1.7 1.7Zm15.14 0h.56c.94 0 1.7-.76 1.7-1.7s-.76-1.7-1.7-1.7h-.56c-.94 0-1.7.76-1.7 1.7s.76 1.7 1.7 1.7Zm15.14 0h.56c.94 0 1.7-.76 1.7-1.7s-.76-1.7-1.7-1.7h-.56c-.94 0-1.7.76-1.7 1.7s.76 1.7 1.7 1.7Zm15.14 0h.56c.94 0 1.7-.76 1.7-1.7s-.76-1.7-1.7-1.7h-.56c-.94 0-1.7.76-1.7 1.7s.76 1.7 1.7 1.7Zm15.14 0h.56c.94 0 1.7-.76 1.7-1.7s-.76-1.7-1.7-1.7h-.56c-.94 0-1.7.76-1.7 1.7s.76 1.7 1.7 1.7Zm15.14 0h.56c.94 0 1.7-.76 1.7-1.7s-.76-1.7-1.7-1.7h-.56c-.94 0-1.7.76-1.7 1.7s.76 1.7 1.7 1.7Zm15.14 0h.56c.94 0 1.7-.76 1.7-1.7s-.76-1.7-1.7-1.7h-.56c-.94 0-1.7.76-1.7 1.7s.76 1.7 1.7 1.7Zm15.14 0h.56c.94 0 1.7-.76 1.7-1.7s-.76-1.7-1.7-1.7h-.56c-.94 0-1.7.76-1.7 1.7s.76 1.7 1.7 1.7Zm15.14 0h.56c.94 0 1.7-.76 1.7-1.7s-.76-1.7-1.7-1.7h-.56c-.94 0-1.7.76-1.7 1.7s.76 1.7 1.7 1.7Zm15.14 0h.56c.94 0 1.7-.76 1.7-1.7s-.76-1.7-1.7-1.7h-.56c-.94 0-1.7.76-1.7 1.7s.76 1.7 1.7 1.7Zm15.14 0h.56c.94 0 1.7-.76 1.7-1.7s-.76-1.7-1.7-1.7h-.56c-.94 0-1.7.76-1.7 1.7s.76 1.7 1.7 1.7Zm15.14 0h.56c.94 0 1.7-.76 1.7-1.7s-.76-1.7-1.7-1.7h-.56c-.94 0-1.7.76-1.7 1.7s.76 1.7 1.7 1.7Zm15.14 0h.56c.94 0 1.7-.76 1.7-1.7s-.76-1.7-1.7-1.7h-.56c-.94 0-1.7.76-1.7 1.7s.76 1.7 1.7 1.7Zm15.14 0h.56c.94 0 1.7-.76 1.7-1.7s-.76-1.7-1.7-1.7h-.56c-.94 0-1.7.76-1.7 1.7s.76 1.7 1.7 1.7Zm15.14 0h.56c.94 0 1.7-.76 1.7-1.7s-.76-1.7-1.7-1.7h-.56c-.94 0-1.7.76-1.7 1.7s.76 1.7 1.7 1.7Zm15.14 0h.56c.94 0 1.7-.76 1.7-1.7s-.76-1.7-1.7-1.7h-.56c-.94 0-1.7.76-1.7 1.7s.76 1.7 1.7 1.7Zm15.14 0h.56c.94 0 1.7-.76 1.7-1.7s-.76-1.7-1.7-1.7h-.56c-.94 0-1.7.76-1.7 1.7s.76 1.7 1.7 1.7Zm15.14 0h.56c.94 0 1.7-.76 1.7-1.7s-.76-1.7-1.7-1.7h-.56c-.94 0-1.7.76-1.7 1.7s.76 1.7 1.7 1.7Zm15.14 0h.56c.94 0 1.7-.76 1.7-1.7s-.76-1.7-1.7-1.7h-.56c-.94 0-1.7.76-1.7 1.7s.76 1.7 1.7 1.7Zm15.14 0h.56c.94 0 1.7-.76 1.7-1.7s-.76-1.7-1.7-1.7h-.56c-.94 0-1.7.76-1.7 1.7s.76 1.7 1.7 1.7Zm15.14 0h.56c.94 0 1.7-.76 1.7-1.7s-.76-1.7-1.7-1.7h-.56c-.94 0-1.7.76-1.7 1.7s.76 1.7 1.7 1.7ZM-175.44 16.27h.56c.94 0 1.7-.76 1.7-1.7s-.76-1.7-1.7-1.7h-.56c-.94 0-1.7.76-1.7 1.7s.76 1.7 1.7 1.7Zm15.14 0h.56c.94 0 1.7-.76 1.7-1.7s-.76-1.7-1.7-1.7h-.56c-.94 0-1.7.76-1.7 1.7s.76 1.7 1.7 1.7Zm15.14 0h.56c.94 0 1.7-.76 1.7-1.7s-.76-1.7-1.7-1.7h-.56c-.94 0-1.7.76-1.7 1.7s.76 1.7 1.7 1.7Zm15.14 0h.56c.94 0 1.7-.76 1.7-1.7s-.76-1.7-1.7-1.7h-.56c-.94 0-1.7.76-1.7 1.7s.76 1.7 1.7 1.7Zm15.14 0h.56c.94 0 1.7-.76 1.7-1.7s-.76-1.7-1.7-1.7h-.56c-.94 0-1.7.76-1.7 1.7s.76 1.7 1.7 1.7Zm15.14 0h.56c.94 0 1.7-.76 1.7-1.7s-.76-1.7-1.7-1.7h-.56c-.94 0-1.7.76-1.7 1.7s.76 1.7 1.7 1.7Zm15.14 0h.56c.94 0 1.7-.76 1.7-1.7s-.76-1.7-1.7-1.7h-.56c-.94 0-1.7.76-1.7 1.7s.76 1.7 1.7 1.7Zm15.14 0h.56c.94 0 1.7-.76 1.7-1.7s-.76-1.7-1.7-1.7h-.56c-.94 0-1.7.76-1.7 1.7s.76 1.7 1.7 1.7Zm15.14 0h.56c.94 0 1.7-.76 1.7-1.7s-.76-1.7-1.7-1.7h-.56c-.94 0-1.7.76-1.7 1.7s.76 1.7 1.7 1.7Zm15.14 0h.56c.94 0 1.7-.76 1.7-1.7s-.76-1.7-1.7-1.7h-.56c-.94 0-1.7.76-1.7 1.7s.76 1.7 1.7 1.7Zm15.14 0h.56c.94 0 1.7-.76 1.7-1.7s-.76-1.7-1.7-1.7h-.56c-.94 0-1.7.76-1.7 1.7s.76 1.7 1.7 1.7Zm15.14 0h.56c.94 0 1.7-.76 1.7-1.7s-.76-1.7-1.7-1.7h-.56c-.94 0-1.7.76-1.7 1.7s.76 1.7 1.7 1.7Zm15.14 0h.56c.94 0 1.7-.76 1.7-1.7s-.76-1.7-1.7-1.7h-.56c-.94 0-1.7.76-1.7 1.7s.76 1.7 1.7 1.7Zm15.14 0h.56c.94 0 1.7-.76 1.7-1.7s-.76-1.7-1.7-1.7h-.56c-.94 0-1.7.76-1.7 1.7s.76 1.7 1.7 1.7Zm15.14 0h.56c.94 0 1.7-.76 1.7-1.7s-.76-1.7-1.7-1.7h-.56c-.94 0-1.7.76-1.7 1.7s.76 1.7 1.7 1.7Zm15.14 0h.56c.94 0 1.7-.76 1.7-1.7s-.76-1.7-1.7-1.7h-.56c-.94 0-1.7.76-1.7 1.7s.76 1.7 1.7 1.7Zm15.14 0h.56c.94 0 1.7-.76 1.7-1.7s-.76-1.7-1.7-1.7h-.56c-.94 0-1.7.76-1.7 1.7s.76 1.7 1.7 1.7Zm15.14 0h.56c.94 0 1.7-.76 1.7-1.7s-.76-1.7-1.7-1.7h-.56c-.94 0-1.7.76-1.7 1.7s.76 1.7 1.7 1.7Zm15.14 0h.56c.94 0 1.7-.76 1.7-1.7s-.76-1.7-1.7-1.7h-.56c-.94 0-1.7.76-1.7 1.7s.76 1.7 1.7 1.7Zm15.14 0h.56c.94 0 1.7-.76 1.7-1.7s-.76-1.7-1.7-1.7h-.56c-.94 0-1.7.76-1.7 1.7s.76 1.7 1.7 1.7Zm15.14 0h.56c.94 0 1.7-.76 1.7-1.7s-.76-1.7-1.7-1.7h-.56c-.94 0-1.7.76-1.7 1.7s.76 1.7 1.7 1.7Zm15.14 0h.56c.94 0 1.7-.76 1.7-1.7s-.76-1.7-1.7-1.7h-.56c-.94 0-1.7.76-1.7 1.7s.76 1.7 1.7 1.7Zm15.14 0h.56c.94 0 1.7-.76 1.7-1.7s-.76-1.7-1.7-1.7h-.56c-.94 0-1.7.76-1.7 1.7s.76 1.7 1.7 1.7Zm15.14 0h.56c.94 0 1.7-.76 1.7-1.7s-.76-1.7-1.7-1.7h-.56c-.94 0-1.7.76-1.7 1.7s.76 1.7 1.7 1.7Zm15.14 0h.56c.94 0 1.7-.76 1.7-1.7s-.76-1.7-1.7-1.7h-.56c-.94 0-1.7.76-1.7 1.7s.76 1.7 1.7 1.7Zm15.14 0h.56c.94 0 1.7-.76 1.7-1.7s-.76-1.7-1.7-1.7h-.56c-.94 0-1.7.76-1.7 1.7s.76 1.7 1.7 1.7Zm15.14 0h.56c.94 0 1.7-.76 1.7-1.7s-.76-1.7-1.7-1.7h-.56c-.94 0-1.7.76-1.7 1.7s.76 1.7 1.7 1.7Zm15.14 0h.56c.94 0 1.7-.76 1.7-1.7s-.76-1.7-1.7-1.7h-.56c-.94 0-1.7.76-1.7 1.7s.76 1.7 1.7 1.7Zm15.14 0h.56c.94 0 1.7-.76 1.7-1.7s-.76-1.7-1.7-1.7h-.56c-.94 0-1.7.76-1.7 1.7s.76 1.7 1.7 1.7Zm15.14 0h.56c.94 0 1.7-.76 1.7-1.7s-.76-1.7-1.7-1.7h-.56c-.94 0-1.7.76-1.7 1.7s.76 1.7 1.7 1.7Zm15.14 0h.56c.94 0 1.7-.76 1.7-1.7s-.76-1.7-1.7-1.7h-.56c-.94 0-1.7.76-1.7 1.7s.76 1.7 1.7 1.7Zm15.14 0h.56c.94 0 1.7-.76 1.7-1.7s-.76-1.7-1.7-1.7h-.56c-.94 0-1.7.76-1.7 1.7s.76 1.7 1.7 1.7Zm15.14 0h.56c.94 0 1.7-.76 1.7-1.7s-.76-1.7-1.7-1.7h-.56c-.94 0-1.7.76-1.7 1.7s.76 1.7 1.7 1.7Zm15.14 0h.56c.94 0 1.7-.76 1.7-1.7s-.76-1.7-1.7-1.7h-.56c-.94 0-1.7.76-1.7 1.7s.76 1.7 1.7 1.7Zm15.14 0h.56c.94 0 1.7-.76 1.7-1.7s-.76-1.7-1.7-1.7h-.56c-.94 0-1.7.76-1.7 1.7s.76 1.7 1.7 1.7Zm15.14 0h.56c.94 0 1.7-.76 1.7-1.7s-.76-1.7-1.7-1.7h-.56c-.94 0-1.7.76-1.7 1.7s.76 1.7 1.7 1.7Zm15.14 0h.56c.94 0 1.7-.76 1.7-1.7s-.76-1.7-1.7-1.7h-.56c-.94 0-1.7.76-1.7 1.7s.76 1.7 1.7 1.7Zm15.14 0h.56c.94 0 1.7-.76 1.7-1.7s-.76-1.7-1.7-1.7h-.56c-.94 0-1.7.76-1.7 1.7s.76 1.7 1.7 1.7Zm15.14 0h.56c.94 0 1.7-.76 1.7-1.7s-.76-1.7-1.7-1.7h-.56c-.94 0-1.7.76-1.7 1.7s.76 1.7 1.7 1.7Zm15.14 0h.56c.94 0 1.7-.76 1.7-1.7s-.76-1.7-1.7-1.7h-.56c-.94 0-1.7.76-1.7 1.7s.76 1.7 1.7 1.7ZM-175.44 27.71h.56c.94 0 1.7-.76 1.7-1.7s-.76-1.7-1.7-1.7h-.56c-.94 0-1.7.76-1.7 1.7s.76 1.7 1.7 1.7Zm15.14 0h.56c.94 0 1.7-.76 1.7-1.7s-.76-1.7-1.7-1.7h-.56c-.94 0-1.7.76-1.7 1.7s.76 1.7 1.7 1.7Zm15.14 0h.56c.94 0 1.7-.76 1.7-1.7s-.76-1.7-1.7-1.7h-.56c-.94 0-1.7.76-1.7 1.7s.76 1.7 1.7 1.7Zm15.14 0h.56c.94 0 1.7-.76 1.7-1.7s-.76-1.7-1.7-1.7h-.56c-.94 0-1.7.76-1.7 1.7s.76 1.7 1.7 1.7Zm15.14 0h.56c.94 0 1.7-.76 1.7-1.7s-.76-1.7-1.7-1.7h-.56c-.94 0-1.7.76-1.7 1.7s.76 1.7 1.7 1.7Zm15.14 0h.56c.94 0 1.7-.76 1.7-1.7s-.76-1.7-1.7-1.7h-.56c-.94 0-1.7.76-1.7 1.7s.76 1.7 1.7 1.7Zm15.14 0h.56c.94 0 1.7-.76 1.7-1.7s-.76-1.7-1.7-1.7h-.56c-.94 0-1.7.76-1.7 1.7s.76 1.7 1.7 1.7Zm15.14 0h.56c.94 0 1.7-.76 1.7-1.7s-.76-1.7-1.7-1.7h-.56c-.94 0-1.7.76-1.7 1.7s.76 1.7 1.7 1.7Zm15.14 0h.56c.94 0 1.7-.76 1.7-1.7s-.76-1.7-1.7-1.7h-.56c-.94 0-1.7.76-1.7 1.7s.76 1.7 1.7 1.7Zm15.14 0h.56c.94 0 1.7-.76 1.7-1.7s-.76-1.7-1.7-1.7h-.56c-.94 0-1.7.76-1.7 1.7s.76 1.7 1.7 1.7Zm15.14 0h.56c.94 0 1.7-.76 1.7-1.7s-.76-1.7-1.7-1.7h-.56c-.94 0-1.7.76-1.7 1.7s.76 1.7 1.7 1.7Zm15.14 0h.56c.94 0 1.7-.76 1.7-1.7s-.76-1.7-1.7-1.7h-.56c-.94 0-1.7.76-1.7 1.7s.76 1.7 1.7 1.7Zm15.14 0h.56c.94 0 1.7-.76 1.7-1.7s-.76-1.7-1.7-1.7h-.56c-.94 0-1.7.76-1.7 1.7s.76 1.7 1.7 1.7Zm15.14 0h.56c.94 0 1.7-.76 1.7-1.7s-.76-1.7-1.7-1.7h-.56c-.94 0-1.7.76-1.7 1.7s.76 1.7 1.7 1.7Zm15.14 0h.56c.94 0 1.7-.76 1.7-1.7s-.76-1.7-1.7-1.7h-.56c-.94 0-1.7.76-1.7 1.7s.76 1.7 1.7 1.7Zm15.14 0h.56c.94 0 1.7-.76 1.7-1.7s-.76-1.7-1.7-1.7h-.56c-.94 0-1.7.76-1.7 1.7s.76 1.7 1.7 1.7Zm15.14 0h.56c.94 0 1.7-.76 1.7-1.7s-.76-1.7-1.7-1.7h-.56c-.94 0-1.7.76-1.7 1.7s.76 1.7 1.7 1.7Zm15.14 0h.56c.94 0 1.7-.76 1.7-1.7s-.76-1.7-1.7-1.7h-.56c-.94 0-1.7.76-1.7 1.7s.76 1.7 1.7 1.7Zm15.14 0h.56c.94 0 1.7-.76 1.7-1.7s-.76-1.7-1.7-1.7h-.56c-.94 0-1.7.76-1.7 1.7s.76 1.7 1.7 1.7Zm15.14 0h.56c.94 0 1.7-.76 1.7-1.7s-.76-1.7-1.7-1.7h-.56c-.94 0-1.7.76-1.7 1.7s.76 1.7 1.7 1.7Zm15.14 0h.56c.94 0 1.7-.76 1.7-1.7s-.76-1.7-1.7-1.7h-.56c-.94 0-1.7.76-1.7 1.7s.76 1.7 1.7 1.7Zm15.14 0h.56c.94 0 1.7-.76 1.7-1.7s-.76-1.7-1.7-1.7h-.56c-.94 0-1.7.76-1.7 1.7s.76 1.7 1.7 1.7Zm15.14 0h.56c.94 0 1.7-.76 1.7-1.7s-.76-1.7-1.7-1.7h-.56c-.94 0-1.7.76-1.7 1.7s.76 1.7 1.7 1.7Zm15.14 0h.56c.94 0 1.7-.76 1.7-1.7s-.76-1.7-1.7-1.7h-.56c-.94 0-1.7.76-1.7 1.7s.76 1.7 1.7 1.7Zm15.14 0h.56c.94 0 1.7-.76 1.7-1.7s-.76-1.7-1.7-1.7h-.56c-.94 0-1.7.76-1.7 1.7s.76 1.7 1.7 1.7Zm15.14 0h.56c.94 0 1.7-.76 1.7-1.7s-.76-1.7-1.7-1.7h-.56c-.94 0-1.7.76-1.7 1.7s.76 1.7 1.7 1.7Zm15.14 0h.56c.94 0 1.7-.76 1.7-1.7s-.76-1.7-1.7-1.7h-.56c-.94 0-1.7.76-1.7 1.7s.76 1.7 1.7 1.7Zm15.14 0h.56c.94 0 1.7-.76 1.7-1.7s-.76-1.7-1.7-1.7h-.56c-.94 0-1.7.76-1.7 1.7s.76 1.7 1.7 1.7Zm15.14 0h.56c.94 0 1.7-.76 1.7-1.7s-.76-1.7-1.7-1.7h-.56c-.94 0-1.7.76-1.7 1.7s.76 1.7 1.7 1.7Zm15.14 0h.56c.94 0 1.7-.76 1.7-1.7s-.76-1.7-1.7-1.7h-.56c-.94 0-1.7.76-1.7 1.7s.76 1.7 1.7 1.7Zm15.14 0h.56c.94 0 1.7-.76 1.7-1.7s-.76-1.7-1.7-1.7h-.56c-.94 0-1.7.76-1.7 1.7s.76 1.7 1.7 1.7Zm15.14 0h.56c.94 0 1.7-.76 1.7-1.7s-.76-1.7-1.7-1.7h-.56c-.94 0-1.7.76-1.7 1.7s.76 1.7 1.7 1.7Zm15.14 0h.56c.94 0 1.7-.76 1.7-1.7s-.76-1.7-1.7-1.7h-.56c-.94 0-1.7.76-1.7 1.7s.76 1.7 1.7 1.7Zm15.14 0h.56c.94 0 1.7-.76 1.7-1.7s-.76-1.7-1.7-1.7h-.56c-.94 0-1.7.76-1.7 1.7s.76 1.7 1.7 1.7Zm15.14 0h.56c.94 0 1.7-.76 1.7-1.7s-.76-1.7-1.7-1.7h-.56c-.94 0-1.7.76-1.7 1.7s.76 1.7 1.7 1.7Zm15.14 0h.56c.94 0 1.7-.76 1.7-1.7s-.76-1.7-1.7-1.7h-.56c-.94 0-1.7.76-1.7 1.7s.76 1.7 1.7 1.7Zm15.14 0h.56c.94 0 1.7-.76 1.7-1.7s-.76-1.7-1.7-1.7h-.56c-.94 0-1.7.76-1.7 1.7s.76 1.7 1.7 1.7Zm15.14 0h.56c.94 0 1.7-.76 1.7-1.7s-.76-1.7-1.7-1.7h-.56c-.94 0-1.7.76-1.7 1.7s.76 1.7 1.7 1.7Zm15.14 0h.56c.94 0 1.7-.76 1.7-1.7s-.76-1.7-1.7-1.7h-.56c-.94 0-1.7.76-1.7 1.7s.76 1.7 1.7 1.7Zm15.14 0h.56c.94 0 1.7-.76 1.7-1.7s-.76-1.7-1.7-1.7h-.56c-.94 0-1.7.76-1.7 1.7s.76 1.7 1.7 1.7ZM-175.44 39.15h.56c.94 0 1.7-.76 1.7-1.7s-.76-1.7-1.7-1.7h-.56c-.94 0-1.7.76-1.7 1.7s.76 1.7 1.7 1.7Zm15.14 0h.56c.94 0 1.7-.76 1.7-1.7s-.76-1.7-1.7-1.7h-.56c-.94 0-1.7.76-1.7 1.7s.76 1.7 1.7 1.7Zm15.14 0h.56c.94 0 1.7-.76 1.7-1.7s-.76-1.7-1.7-1.7h-.56c-.94 0-1.7.76-1.7 1.7s.76 1.7 1.7 1.7Zm15.14 0h.56c.94 0 1.7-.76 1.7-1.7s-.76-1.7-1.7-1.7h-.56c-.94 0-1.7.76-1.7 1.7s.76 1.7 1.7 1.7Zm15.14 0h.56c.94 0 1.7-.76 1.7-1.7s-.76-1.7-1.7-1.7h-.56c-.94 0-1.7.76-1.7 1.7s.76 1.7 1.7 1.7Zm15.14 0h.56c.94 0 1.7-.76 1.7-1.7s-.76-1.7-1.7-1.7h-.56c-.94 0-1.7.76-1.7 1.7s.76 1.7 1.7 1.7Zm15.14 0h.56c.94 0 1.7-.76 1.7-1.7s-.76-1.7-1.7-1.7h-.56c-.94 0-1.7.76-1.7 1.7s.76 1.7 1.7 1.7Zm15.14 0h.56c.94 0 1.7-.76 1.7-1.7s-.76-1.7-1.7-1.7h-.56c-.94 0-1.7.76-1.7 1.7s.76 1.7 1.7 1.7Zm15.14 0h.56c.94 0 1.7-.76 1.7-1.7s-.76-1.7-1.7-1.7h-.56c-.94 0-1.7.76-1.7 1.7s.76 1.7 1.7 1.7Zm15.14 0h.56c.94 0 1.7-.76 1.7-1.7s-.76-1.7-1.7-1.7h-.56c-.94 0-1.7.76-1.7 1.7s.76 1.7 1.7 1.7Zm15.14 0h.56c.94 0 1.7-.76 1.7-1.7s-.76-1.7-1.7-1.7h-.56c-.94 0-1.7.76-1.7 1.7s.76 1.7 1.7 1.7Zm15.14 0h.56c.94 0 1.7-.76 1.7-1.7s-.76-1.7-1.7-1.7h-.56c-.94 0-1.7.76-1.7 1.7s.76 1.7 1.7 1.7Zm15.14 0h.56c.94 0 1.7-.76 1.7-1.7s-.76-1.7-1.7-1.7h-.56c-.94 0-1.7.76-1.7 1.7s.76 1.7 1.7 1.7Zm15.14 0h.56c.94 0 1.7-.76 1.7-1.7s-.76-1.7-1.7-1.7h-.56c-.94 0-1.7.76-1.7 1.7s.76 1.7 1.7 1.7Zm15.14 0h.56c.94 0 1.7-.76 1.7-1.7s-.76-1.7-1.7-1.7h-.56c-.94 0-1.7.76-1.7 1.7s.76 1.7 1.7 1.7Zm15.14 0h.56c.94 0 1.7-.76 1.7-1.7s-.76-1.7-1.7-1.7h-.56c-.94 0-1.7.76-1.7 1.7s.76 1.7 1.7 1.7Zm15.14 0h.56c.94 0 1.7-.76 1.7-1.7s-.76-1.7-1.7-1.7h-.56c-.94 0-1.7.76-1.7 1.7s.76 1.7 1.7 1.7Zm15.14 0h.56c.94 0 1.7-.76 1.7-1.7s-.76-1.7-1.7-1.7h-.56c-.94 0-1.7.76-1.7 1.7s.76 1.7 1.7 1.7Zm15.14 0h.56c.94 0 1.7-.76 1.7-1.7s-.76-1.7-1.7-1.7h-.56c-.94 0-1.7.76-1.7 1.7s.76 1.7 1.7 1.7Zm15.14 0h.56c.94 0 1.7-.76 1.7-1.7s-.76-1.7-1.7-1.7h-.56c-.94 0-1.7.76-1.7 1.7s.76 1.7 1.7 1.7Zm15.14 0h.56c.94 0 1.7-.76 1.7-1.7s-.76-1.7-1.7-1.7h-.56c-.94 0-1.7.76-1.7 1.7s.76 1.7 1.7 1.7Zm15.14 0h.56c.94 0 1.7-.76 1.7-1.7s-.76-1.7-1.7-1.7h-.56c-.94 0-1.7.76-1.7 1.7s.76 1.7 1.7 1.7Zm15.14 0h.56c.94 0 1.7-.76 1.7-1.7s-.76-1.7-1.7-1.7h-.56c-.94 0-1.7.76-1.7 1.7s.76 1.7 1.7 1.7Zm15.14 0h.56c.94 0 1.7-.76 1.7-1.7s-.76-1.7-1.7-1.7h-.56c-.94 0-1.7.76-1.7 1.7s.76 1.7 1.7 1.7Zm15.14 0h.56c.94 0 1.7-.76 1.7-1.7s-.76-1.7-1.7-1.7h-.56c-.94 0-1.7.76-1.7 1.7s.76 1.7 1.7 1.7Zm15.14 0h.56c.94 0 1.7-.76 1.7-1.7s-.76-1.7-1.7-1.7h-.56c-.94 0-1.7.76-1.7 1.7s.76 1.7 1.7 1.7Zm15.14 0h.56c.94 0 1.7-.76 1.7-1.7s-.76-1.7-1.7-1.7h-.56c-.94 0-1.7.76-1.7 1.7s.76 1.7 1.7 1.7Zm15.14 0h.56c.94 0 1.7-.76 1.7-1.7s-.76-1.7-1.7-1.7h-.56c-.94 0-1.7.76-1.7 1.7s.76 1.7 1.7 1.7Zm15.14 0h.56c.94 0 1.7-.76 1.7-1.7s-.76-1.7-1.7-1.7h-.56c-.94 0-1.7.76-1.7 1.7s.76 1.7 1.7 1.7Zm15.14 0h.56c.94 0 1.7-.76 1.7-1.7s-.76-1.7-1.7-1.7h-.56c-.94 0-1.7.76-1.7 1.7s.76 1.7 1.7 1.7Zm15.14 0h.56c.94 0 1.7-.76 1.7-1.7s-.76-1.7-1.7-1.7h-.56c-.94 0-1.7.76-1.7 1.7s.76 1.7 1.7 1.7Zm15.14 0h.56c.94 0 1.7-.76 1.7-1.7s-.76-1.7-1.7-1.7h-.56c-.94 0-1.7.76-1.7 1.7s.76 1.7 1.7 1.7Zm15.14 0h.56c.94 0 1.7-.76 1.7-1.7s-.76-1.7-1.7-1.7h-.56c-.94 0-1.7.76-1.7 1.7s.76 1.7 1.7 1.7Zm15.14 0h.56c.94 0 1.7-.76 1.7-1.7s-.76-1.7-1.7-1.7h-.56c-.94 0-1.7.76-1.7 1.7s.76 1.7 1.7 1.7Zm15.14 0h.56c.94 0 1.7-.76 1.7-1.7s-.76-1.7-1.7-1.7h-.56c-.94 0-1.7.76-1.7 1.7s.76 1.7 1.7 1.7Zm15.14 0h.56c.94 0 1.7-.76 1.7-1.7s-.76-1.7-1.7-1.7h-.56c-.94 0-1.7.76-1.7 1.7s.76 1.7 1.7 1.7Zm15.14 0h.56c.94 0 1.7-.76 1.7-1.7s-.76-1.7-1.7-1.7h-.56c-.94 0-1.7.76-1.7 1.7s.76 1.7 1.7 1.7Zm15.14 0h.56c.94 0 1.7-.76 1.7-1.7s-.76-1.7-1.7-1.7h-.56c-.94 0-1.7.76-1.7 1.7s.76 1.7 1.7 1.7Zm15.14 0h.56c.94 0 1.7-.76 1.7-1.7s-.76-1.7-1.7-1.7h-.56c-.94 0-1.7.76-1.7 1.7s.76 1.7 1.7 1.7Zm15.14 0h.56c.94 0 1.7-.76 1.7-1.7s-.76-1.7-1.7-1.7h-.56c-.94 0-1.7.76-1.7 1.7s.76 1.7 1.7 1.7ZM-175.44 50.59h.56c.94 0 1.7-.76 1.7-1.7s-.76-1.7-1.7-1.7h-.56c-.94 0-1.7.76-1.7 1.7s.76 1.7 1.7 1.7Zm15.14 0h.56c.94 0 1.7-.76 1.7-1.7s-.76-1.7-1.7-1.7h-.56c-.94 0-1.7.76-1.7 1.7s.76 1.7 1.7 1.7Zm15.14 0h.56c.94 0 1.7-.76 1.7-1.7s-.76-1.7-1.7-1.7h-.56c-.94 0-1.7.76-1.7 1.7s.76 1.7 1.7 1.7Zm15.14 0h.56c.94 0 1.7-.76 1.7-1.7s-.76-1.7-1.7-1.7h-.56c-.94 0-1.7.76-1.7 1.7s.76 1.7 1.7 1.7Zm15.14 0h.56c.94 0 1.7-.76 1.7-1.7s-.76-1.7-1.7-1.7h-.56c-.94 0-1.7.76-1.7 1.7s.76 1.7 1.7 1.7Zm15.14 0h.56c.94 0 1.7-.76 1.7-1.7s-.76-1.7-1.7-1.7h-.56c-.94 0-1.7.76-1.7 1.7s.76 1.7 1.7 1.7Zm15.14 0h.56c.94 0 1.7-.76 1.7-1.7s-.76-1.7-1.7-1.7h-.56c-.94 0-1.7.76-1.7 1.7s.76 1.7 1.7 1.7Zm15.14 0h.56c.94 0 1.7-.76 1.7-1.7s-.76-1.7-1.7-1.7h-.56c-.94 0-1.7.76-1.7 1.7s.76 1.7 1.7 1.7Zm15.14 0h.56c.94 0 1.7-.76 1.7-1.7s-.76-1.7-1.7-1.7h-.56c-.94 0-1.7.76-1.7 1.7s.76 1.7 1.7 1.7Zm15.14 0h.56c.94 0 1.7-.76 1.7-1.7s-.76-1.7-1.7-1.7h-.56c-.94 0-1.7.76-1.7 1.7s.76 1.7 1.7 1.7Zm15.14 0h.56c.94 0 1.7-.76 1.7-1.7s-.76-1.7-1.7-1.7h-.56c-.94 0-1.7.76-1.7 1.7s.76 1.7 1.7 1.7Zm15.14 0h.56c.94 0 1.7-.76 1.7-1.7s-.76-1.7-1.7-1.7h-.56c-.94 0-1.7.76-1.7 1.7s.76 1.7 1.7 1.7Zm15.14 0h.56c.94 0 1.7-.76 1.7-1.7s-.76-1.7-1.7-1.7h-.56c-.94 0-1.7.76-1.7 1.7s.76 1.7 1.7 1.7Zm15.14 0h.56c.94 0 1.7-.76 1.7-1.7s-.76-1.7-1.7-1.7h-.56c-.94 0-1.7.76-1.7 1.7s.76 1.7 1.7 1.7Zm15.14 0h.56c.94 0 1.7-.76 1.7-1.7s-.76-1.7-1.7-1.7h-.56c-.94 0-1.7.76-1.7 1.7s.76 1.7 1.7 1.7Zm15.14 0h.56c.94 0 1.7-.76 1.7-1.7s-.76-1.7-1.7-1.7h-.56c-.94 0-1.7.76-1.7 1.7s.76 1.7 1.7 1.7Zm15.14 0h.56c.94 0 1.7-.76 1.7-1.7s-.76-1.7-1.7-1.7h-.56c-.94 0-1.7.76-1.7 1.7s.76 1.7 1.7 1.7Zm15.14 0h.56c.94 0 1.7-.76 1.7-1.7s-.76-1.7-1.7-1.7h-.56c-.94 0-1.7.76-1.7 1.7s.76 1.7 1.7 1.7Zm15.14 0h.56c.94 0 1.7-.76 1.7-1.7s-.76-1.7-1.7-1.7h-.56c-.94 0-1.7.76-1.7 1.7s.76 1.7 1.7 1.7Zm15.14 0h.56c.94 0 1.7-.76 1.7-1.7s-.76-1.7-1.7-1.7h-.56c-.94 0-1.7.76-1.7 1.7s.76 1.7 1.7 1.7Zm15.14 0h.56c.94 0 1.7-.76 1.7-1.7s-.76-1.7-1.7-1.7h-.56c-.94 0-1.7.76-1.7 1.7s.76 1.7 1.7 1.7Zm15.14 0h.56c.94 0 1.7-.76 1.7-1.7s-.76-1.7-1.7-1.7h-.56c-.94 0-1.7.76-1.7 1.7s.76 1.7 1.7 1.7Zm15.14 0h.56c.94 0 1.7-.76 1.7-1.7s-.76-1.7-1.7-1.7h-.56c-.94 0-1.7.76-1.7 1.7s.76 1.7 1.7 1.7Zm15.14 0h.56c.94 0 1.7-.76 1.7-1.7s-.76-1.7-1.7-1.7h-.56c-.94 0-1.7.76-1.7 1.7s.76 1.7 1.7 1.7Zm15.14 0h.56c.94 0 1.7-.76 1.7-1.7s-.76-1.7-1.7-1.7h-.56c-.94 0-1.7.76-1.7 1.7s.76 1.7 1.7 1.7Zm15.14 0h.56c.94 0 1.7-.76 1.7-1.7s-.76-1.7-1.7-1.7h-.56c-.94 0-1.7.76-1.7 1.7s.76 1.7 1.7 1.7Zm15.14 0h.56c.94 0 1.7-.76 1.7-1.7s-.76-1.7-1.7-1.7h-.56c-.94 0-1.7.76-1.7 1.7s.76 1.7 1.7 1.7Zm15.14 0h.56c.94 0 1.7-.76 1.7-1.7s-.76-1.7-1.7-1.7h-.56c-.94 0-1.7.76-1.7 1.7s.76 1.7 1.7 1.7Zm15.14 0h.56c.94 0 1.7-.76 1.7-1.7s-.76-1.7-1.7-1.7h-.56c-.94 0-1.7.76-1.7 1.7s.76 1.7 1.7 1.7Zm15.14 0h.56c.94 0 1.7-.76 1.7-1.7s-.76-1.7-1.7-1.7h-.56c-.94 0-1.7.76-1.7 1.7s.76 1.7 1.7 1.7Zm15.14 0h.56c.94 0 1.7-.76 1.7-1.7s-.76-1.7-1.7-1.7h-.56c-.94 0-1.7.76-1.7 1.7s.76 1.7 1.7 1.7Zm15.14 0h.56c.94 0 1.7-.76 1.7-1.7s-.76-1.7-1.7-1.7h-.56c-.94 0-1.7.76-1.7 1.7s.76 1.7 1.7 1.7Zm15.14 0h.56c.94 0 1.7-.76 1.7-1.7s-.76-1.7-1.7-1.7h-.56c-.94 0-1.7.76-1.7 1.7s.76 1.7 1.7 1.7Zm15.14 0h.56c.94 0 1.7-.76 1.7-1.7s-.76-1.7-1.7-1.7h-.56c-.94 0-1.7.76-1.7 1.7s.76 1.7 1.7 1.7Zm15.14 0h.56c.94 0 1.7-.76 1.7-1.7s-.76-1.7-1.7-1.7h-.56c-.94 0-1.7.76-1.7 1.7s.76 1.7 1.7 1.7Zm15.14 0h.56c.94 0 1.7-.76 1.7-1.7s-.76-1.7-1.7-1.7h-.56c-.94 0-1.7.76-1.7 1.7s.76 1.7 1.7 1.7Zm15.14 0h.56c.94 0 1.7-.76 1.7-1.7s-.76-1.7-1.7-1.7h-.56c-.94 0-1.7.76-1.7 1.7s.76 1.7 1.7 1.7Zm15.14 0h.56c.94 0 1.7-.76 1.7-1.7s-.76-1.7-1.7-1.7h-.56c-.94 0-1.7.76-1.7 1.7s.76 1.7 1.7 1.7Zm15.14 0h.56c.94 0 1.7-.76 1.7-1.7s-.76-1.7-1.7-1.7h-.56c-.94 0-1.7.76-1.7 1.7s.76 1.7 1.7 1.7Zm15.14 0h.56c.94 0 1.7-.76 1.7-1.7s-.76-1.7-1.7-1.7h-.56c-.94 0-1.7.76-1.7 1.7s.76 1.7 1.7 1.7ZM-175.44 62.02h.56c.94 0 1.7-.76 1.7-1.7s-.76-1.7-1.7-1.7h-.56c-.94 0-1.7.76-1.7 1.7s.76 1.7 1.7 1.7Zm15.14 0h.56c.94 0 1.7-.76 1.7-1.7s-.76-1.7-1.7-1.7h-.56c-.94 0-1.7.76-1.7 1.7s.76 1.7 1.7 1.7Zm15.14 0h.56c.94 0 1.7-.76 1.7-1.7s-.76-1.7-1.7-1.7h-.56c-.94 0-1.7.76-1.7 1.7s.76 1.7 1.7 1.7Zm15.14 0h.56c.94 0 1.7-.76 1.7-1.7s-.76-1.7-1.7-1.7h-.56c-.94 0-1.7.76-1.7 1.7s.76 1.7 1.7 1.7Zm15.14 0h.56c.94 0 1.7-.76 1.7-1.7s-.76-1.7-1.7-1.7h-.56c-.94 0-1.7.76-1.7 1.7s.76 1.7 1.7 1.7Zm15.14 0h.56c.94 0 1.7-.76 1.7-1.7s-.76-1.7-1.7-1.7h-.56c-.94 0-1.7.76-1.7 1.7s.76 1.7 1.7 1.7Zm15.14 0h.56c.94 0 1.7-.76 1.7-1.7s-.76-1.7-1.7-1.7h-.56c-.94 0-1.7.76-1.7 1.7s.76 1.7 1.7 1.7Zm15.14 0h.56c.94 0 1.7-.76 1.7-1.7s-.76-1.7-1.7-1.7h-.56c-.94 0-1.7.76-1.7 1.7s.76 1.7 1.7 1.7Zm15.14 0h.56c.94 0 1.7-.76 1.7-1.7s-.76-1.7-1.7-1.7h-.56c-.94 0-1.7.76-1.7 1.7s.76 1.7 1.7 1.7Zm15.14 0h.56c.94 0 1.7-.76 1.7-1.7s-.76-1.7-1.7-1.7h-.56c-.94 0-1.7.76-1.7 1.7s.76 1.7 1.7 1.7Zm15.14 0h.56c.94 0 1.7-.76 1.7-1.7s-.76-1.7-1.7-1.7h-.56c-.94 0-1.7.76-1.7 1.7s.76 1.7 1.7 1.7Zm15.14 0h.56c.94 0 1.7-.76 1.7-1.7s-.76-1.7-1.7-1.7h-.56c-.94 0-1.7.76-1.7 1.7s.76 1.7 1.7 1.7Zm15.14 0h.56c.94 0 1.7-.76 1.7-1.7s-.76-1.7-1.7-1.7h-.56c-.94 0-1.7.76-1.7 1.7s.76 1.7 1.7 1.7Zm15.14 0h.56c.94 0 1.7-.76 1.7-1.7s-.76-1.7-1.7-1.7h-.56c-.94 0-1.7.76-1.7 1.7s.76 1.7 1.7 1.7Zm15.14 0h.56c.94 0 1.7-.76 1.7-1.7s-.76-1.7-1.7-1.7h-.56c-.94 0-1.7.76-1.7 1.7s.76 1.7 1.7 1.7Zm15.14 0h.56c.94 0 1.7-.76 1.7-1.7s-.76-1.7-1.7-1.7h-.56c-.94 0-1.7.76-1.7 1.7s.76 1.7 1.7 1.7Zm15.14 0h.56c.94 0 1.7-.76 1.7-1.7s-.76-1.7-1.7-1.7h-.56c-.94 0-1.7.76-1.7 1.7s.76 1.7 1.7 1.7Zm15.14 0h.56c.94 0 1.7-.76 1.7-1.7s-.76-1.7-1.7-1.7h-.56c-.94 0-1.7.76-1.7 1.7s.76 1.7 1.7 1.7Zm15.14 0h.56c.94 0 1.7-.76 1.7-1.7s-.76-1.7-1.7-1.7h-.56c-.94 0-1.7.76-1.7 1.7s.76 1.7 1.7 1.7Zm15.14 0h.56c.94 0 1.7-.76 1.7-1.7s-.76-1.7-1.7-1.7h-.56c-.94 0-1.7.76-1.7 1.7s.76 1.7 1.7 1.7Zm15.14 0h.56c.94 0 1.7-.76 1.7-1.7s-.76-1.7-1.7-1.7h-.56c-.94 0-1.7.76-1.7 1.7s.76 1.7 1.7 1.7Zm15.14 0h.56c.94 0 1.7-.76 1.7-1.7s-.76-1.7-1.7-1.7h-.56c-.94 0-1.7.76-1.7 1.7s.76 1.7 1.7 1.7Zm15.14 0h.56c.94 0 1.7-.76 1.7-1.7s-.76-1.7-1.7-1.7h-.56c-.94 0-1.7.76-1.7 1.7s.76 1.7 1.7 1.7Zm15.14 0h.56c.94 0 1.7-.76 1.7-1.7s-.76-1.7-1.7-1.7h-.56c-.94 0-1.7.76-1.7 1.7s.76 1.7 1.7 1.7Zm15.14 0h.56c.94 0 1.7-.76 1.7-1.7s-.76-1.7-1.7-1.7h-.56c-.94 0-1.7.76-1.7 1.7s.76 1.7 1.7 1.7Zm15.14 0h.56c.94 0 1.7-.76 1.7-1.7s-.76-1.7-1.7-1.7h-.56c-.94 0-1.7.76-1.7 1.7s.76 1.7 1.7 1.7Zm15.14 0h.56c.94 0 1.7-.76 1.7-1.7s-.76-1.7-1.7-1.7h-.56c-.94 0-1.7.76-1.7 1.7s.76 1.7 1.7 1.7Zm15.14 0h.56c.94 0 1.7-.76 1.7-1.7s-.76-1.7-1.7-1.7h-.56c-.94 0-1.7.76-1.7 1.7s.76 1.7 1.7 1.7Zm15.14 0h.56c.94 0 1.7-.76 1.7-1.7s-.76-1.7-1.7-1.7h-.56c-.94 0-1.7.76-1.7 1.7s.76 1.7 1.7 1.7Zm15.14 0h.56c.94 0 1.7-.76 1.7-1.7s-.76-1.7-1.7-1.7h-.56c-.94 0-1.7.76-1.7 1.7s.76 1.7 1.7 1.7Zm15.14 0h.56c.94 0 1.7-.76 1.7-1.7s-.76-1.7-1.7-1.7h-.56c-.94 0-1.7.76-1.7 1.7s.76 1.7 1.7 1.7Zm15.14 0h.56c.94 0 1.7-.76 1.7-1.7s-.76-1.7-1.7-1.7h-.56c-.94 0-1.7.76-1.7 1.7s.76 1.7 1.7 1.7Zm15.14 0h.56c.94 0 1.7-.76 1.7-1.7s-.76-1.7-1.7-1.7h-.56c-.94 0-1.7.76-1.7 1.7s.76 1.7 1.7 1.7Zm15.14 0h.56c.94 0 1.7-.76 1.7-1.7s-.76-1.7-1.7-1.7h-.56c-.94 0-1.7.76-1.7 1.7s.76 1.7 1.7 1.7Zm15.14 0h.56c.94 0 1.7-.76 1.7-1.7s-.76-1.7-1.7-1.7h-.56c-.94 0-1.7.76-1.7 1.7s.76 1.7 1.7 1.7Zm15.14 0h.56c.94 0 1.7-.76 1.7-1.7s-.76-1.7-1.7-1.7h-.56c-.94 0-1.7.76-1.7 1.7s.76 1.7 1.7 1.7Zm15.14 0h.56c.94 0 1.7-.76 1.7-1.7s-.76-1.7-1.7-1.7h-.56c-.94 0-1.7.76-1.7 1.7s.76 1.7 1.7 1.7Zm15.14 0h.56c.94 0 1.7-.76 1.7-1.7s-.76-1.7-1.7-1.7h-.56c-.94 0-1.7.76-1.7 1.7s.76 1.7 1.7 1.7Zm15.14 0h.56c.94 0 1.7-.76 1.7-1.7s-.76-1.7-1.7-1.7h-.56c-.94 0-1.7.76-1.7 1.7s.76 1.7 1.7 1.7Zm15.14 0h.56c.94 0 1.7-.76 1.7-1.7s-.76-1.7-1.7-1.7h-.56c-.94 0-1.7.76-1.7 1.7s.76 1.7 1.7 1.7ZM-175.44 73.46h.56c.94 0 1.7-.76 1.7-1.7s-.76-1.7-1.7-1.7h-.56c-.94 0-1.7.76-1.7 1.7s.76 1.7 1.7 1.7Zm15.14 0h.56c.94 0 1.7-.76 1.7-1.7s-.76-1.7-1.7-1.7h-.56c-.94 0-1.7.76-1.7 1.7s.76 1.7 1.7 1.7Zm15.14 0h.56c.94 0 1.7-.76 1.7-1.7s-.76-1.7-1.7-1.7h-.56c-.94 0-1.7.76-1.7 1.7s.76 1.7 1.7 1.7Zm15.14 0h.56c.94 0 1.7-.76 1.7-1.7s-.76-1.7-1.7-1.7h-.56c-.94 0-1.7.76-1.7 1.7s.76 1.7 1.7 1.7Zm15.14 0h.56c.94 0 1.7-.76 1.7-1.7s-.76-1.7-1.7-1.7h-.56c-.94 0-1.7.76-1.7 1.7s.76 1.7 1.7 1.7Zm15.14 0h.56c.94 0 1.7-.76 1.7-1.7s-.76-1.7-1.7-1.7h-.56c-.94 0-1.7.76-1.7 1.7s.76 1.7 1.7 1.7Zm15.14 0h.56c.94 0 1.7-.76 1.7-1.7s-.76-1.7-1.7-1.7h-.56c-.94 0-1.7.76-1.7 1.7s.76 1.7 1.7 1.7Zm15.14 0h.56c.94 0 1.7-.76 1.7-1.7s-.76-1.7-1.7-1.7h-.56c-.94 0-1.7.76-1.7 1.7s.76 1.7 1.7 1.7Zm15.14 0h.56c.94 0 1.7-.76 1.7-1.7s-.76-1.7-1.7-1.7h-.56c-.94 0-1.7.76-1.7 1.7s.76 1.7 1.7 1.7Zm15.14 0h.56c.94 0 1.7-.76 1.7-1.7s-.76-1.7-1.7-1.7h-.56c-.94 0-1.7.76-1.7 1.7s.76 1.7 1.7 1.7Zm15.14 0h.56c.94 0 1.7-.76 1.7-1.7s-.76-1.7-1.7-1.7h-.56c-.94 0-1.7.76-1.7 1.7s.76 1.7 1.7 1.7Zm15.14 0h.56c.94 0 1.7-.76 1.7-1.7s-.76-1.7-1.7-1.7h-.56c-.94 0-1.7.76-1.7 1.7s.76 1.7 1.7 1.7Zm15.14 0h.56c.94 0 1.7-.76 1.7-1.7s-.76-1.7-1.7-1.7h-.56c-.94 0-1.7.76-1.7 1.7s.76 1.7 1.7 1.7Zm15.14 0h.56c.94 0 1.7-.76 1.7-1.7s-.76-1.7-1.7-1.7h-.56c-.94 0-1.7.76-1.7 1.7s.76 1.7 1.7 1.7Zm15.14 0h.56c.94 0 1.7-.76 1.7-1.7s-.76-1.7-1.7-1.7h-.56c-.94 0-1.7.76-1.7 1.7s.76 1.7 1.7 1.7Zm15.14 0h.56c.94 0 1.7-.76 1.7-1.7s-.76-1.7-1.7-1.7h-.56c-.94 0-1.7.76-1.7 1.7s.76 1.7 1.7 1.7Zm15.14 0h.56c.94 0 1.7-.76 1.7-1.7s-.76-1.7-1.7-1.7h-.56c-.94 0-1.7.76-1.7 1.7s.76 1.7 1.7 1.7Zm15.14 0h.56c.94 0 1.7-.76 1.7-1.7s-.76-1.7-1.7-1.7h-.56c-.94 0-1.7.76-1.7 1.7s.76 1.7 1.7 1.7Zm15.14 0h.56c.94 0 1.7-.76 1.7-1.7s-.76-1.7-1.7-1.7h-.56c-.94 0-1.7.76-1.7 1.7s.76 1.7 1.7 1.7Zm15.14 0h.56c.94 0 1.7-.76 1.7-1.7s-.76-1.7-1.7-1.7h-.56c-.94 0-1.7.76-1.7 1.7s.76 1.7 1.7 1.7Zm15.14 0h.56c.94 0 1.7-.76 1.7-1.7s-.76-1.7-1.7-1.7h-.56c-.94 0-1.7.76-1.7 1.7s.76 1.7 1.7 1.7Zm15.14 0h.56c.94 0 1.7-.76 1.7-1.7s-.76-1.7-1.7-1.7h-.56c-.94 0-1.7.76-1.7 1.7s.76 1.7 1.7 1.7Zm15.14 0h.56c.94 0 1.7-.76 1.7-1.7s-.76-1.7-1.7-1.7h-.56c-.94 0-1.7.76-1.7 1.7s.76 1.7 1.7 1.7Zm15.14 0h.56c.94 0 1.7-.76 1.7-1.7s-.76-1.7-1.7-1.7h-.56c-.94 0-1.7.76-1.7 1.7s.76 1.7 1.7 1.7Zm15.14 0h.56c.94 0 1.7-.76 1.7-1.7s-.76-1.7-1.7-1.7h-.56c-.94 0-1.7.76-1.7 1.7s.76 1.7 1.7 1.7Zm15.14 0h.56c.94 0 1.7-.76 1.7-1.7s-.76-1.7-1.7-1.7h-.56c-.94 0-1.7.76-1.7 1.7s.76 1.7 1.7 1.7Zm15.14 0h.56c.94 0 1.7-.76 1.7-1.7s-.76-1.7-1.7-1.7h-.56c-.94 0-1.7.76-1.7 1.7s.76 1.7 1.7 1.7Zm15.14 0h.56c.94 0 1.7-.76 1.7-1.7s-.76-1.7-1.7-1.7h-.56c-.94 0-1.7.76-1.7 1.7s.76 1.7 1.7 1.7Zm15.14 0h.56c.94 0 1.7-.76 1.7-1.7s-.76-1.7-1.7-1.7h-.56c-.94 0-1.7.76-1.7 1.7s.76 1.7 1.7 1.7Zm15.14 0h.56c.94 0 1.7-.76 1.7-1.7s-.76-1.7-1.7-1.7h-.56c-.94 0-1.7.76-1.7 1.7s.76 1.7 1.7 1.7Zm15.14 0h.56c.94 0 1.7-.76 1.7-1.7s-.76-1.7-1.7-1.7h-.56c-.94 0-1.7.76-1.7 1.7s.76 1.7 1.7 1.7Zm15.14 0h.56c.94 0 1.7-.76 1.7-1.7s-.76-1.7-1.7-1.7h-.56c-.94 0-1.7.76-1.7 1.7s.76 1.7 1.7 1.7Zm15.14 0h.56c.94 0 1.7-.76 1.7-1.7s-.76-1.7-1.7-1.7h-.56c-.94 0-1.7.76-1.7 1.7s.76 1.7 1.7 1.7Zm15.14 0h.56c.94 0 1.7-.76 1.7-1.7s-.76-1.7-1.7-1.7h-.56c-.94 0-1.7.76-1.7 1.7s.76 1.7 1.7 1.7Zm15.14 0h.56c.94 0 1.7-.76 1.7-1.7s-.76-1.7-1.7-1.7h-.56c-.94 0-1.7.76-1.7 1.7s.76 1.7 1.7 1.7Zm15.14 0h.56c.94 0 1.7-.76 1.7-1.7s-.76-1.7-1.7-1.7h-.56c-.94 0-1.7.76-1.7 1.7s.76 1.7 1.7 1.7Zm15.14 0h.56c.94 0 1.7-.76 1.7-1.7s-.76-1.7-1.7-1.7h-.56c-.94 0-1.7.76-1.7 1.7s.76 1.7 1.7 1.7Zm15.14 0h.56c.94 0 1.7-.76 1.7-1.7s-.76-1.7-1.7-1.7h-.56c-.94 0-1.7.76-1.7 1.7s.76 1.7 1.7 1.7Zm15.14 0h.56c.94 0 1.7-.76 1.7-1.7s-.76-1.7-1.7-1.7h-.56c-.94 0-1.7.76-1.7 1.7s.76 1.7 1.7 1.7Zm15.14 0h.56c.94 0 1.7-.76 1.7-1.7s-.76-1.7-1.7-1.7h-.56c-.94 0-1.7.76-1.7 1.7s.76 1.7 1.7 1.7ZM-175.44 84.9h.56c.94 0 1.7-.76 1.7-1.7s-.76-1.7-1.7-1.7h-.56c-.94 0-1.7.76-1.7 1.7s.76 1.7 1.7 1.7Zm15.14 0h.56c.94 0 1.7-.76 1.7-1.7s-.76-1.7-1.7-1.7h-.56c-.94 0-1.7.76-1.7 1.7s.76 1.7 1.7 1.7Zm15.14 0h.56c.94 0 1.7-.76 1.7-1.7s-.76-1.7-1.7-1.7h-.56c-.94 0-1.7.76-1.7 1.7s.76 1.7 1.7 1.7Zm15.14 0h.56c.94 0 1.7-.76 1.7-1.7s-.76-1.7-1.7-1.7h-.56c-.94 0-1.7.76-1.7 1.7s.76 1.7 1.7 1.7Zm15.14 0h.56c.94 0 1.7-.76 1.7-1.7s-.76-1.7-1.7-1.7h-.56c-.94 0-1.7.76-1.7 1.7s.76 1.7 1.7 1.7Zm15.14 0h.56c.94 0 1.7-.76 1.7-1.7s-.76-1.7-1.7-1.7h-.56c-.94 0-1.7.76-1.7 1.7s.76 1.7 1.7 1.7Zm15.14 0h.56c.94 0 1.7-.76 1.7-1.7s-.76-1.7-1.7-1.7h-.56c-.94 0-1.7.76-1.7 1.7s.76 1.7 1.7 1.7Zm15.14 0h.56c.94 0 1.7-.76 1.7-1.7s-.76-1.7-1.7-1.7h-.56c-.94 0-1.7.76-1.7 1.7s.76 1.7 1.7 1.7Zm15.14 0h.56c.94 0 1.7-.76 1.7-1.7s-.76-1.7-1.7-1.7h-.56c-.94 0-1.7.76-1.7 1.7s.76 1.7 1.7 1.7Zm15.14 0h.56c.94 0 1.7-.76 1.7-1.7s-.76-1.7-1.7-1.7h-.56c-.94 0-1.7.76-1.7 1.7s.76 1.7 1.7 1.7Zm15.14 0h.56c.94 0 1.7-.76 1.7-1.7s-.76-1.7-1.7-1.7h-.56c-.94 0-1.7.76-1.7 1.7s.76 1.7 1.7 1.7Zm15.14 0h.56c.94 0 1.7-.76 1.7-1.7s-.76-1.7-1.7-1.7h-.56c-.94 0-1.7.76-1.7 1.7s.76 1.7 1.7 1.7Zm15.14 0h.56c.94 0 1.7-.76 1.7-1.7s-.76-1.7-1.7-1.7h-.56c-.94 0-1.7.76-1.7 1.7s.76 1.7 1.7 1.7Zm15.14 0h.56c.94 0 1.7-.76 1.7-1.7s-.76-1.7-1.7-1.7h-.56c-.94 0-1.7.76-1.7 1.7s.76 1.7 1.7 1.7Zm15.14 0h.56c.94 0 1.7-.76 1.7-1.7s-.76-1.7-1.7-1.7h-.56c-.94 0-1.7.76-1.7 1.7s.76 1.7 1.7 1.7Zm15.14 0h.56c.94 0 1.7-.76 1.7-1.7s-.76-1.7-1.7-1.7h-.56c-.94 0-1.7.76-1.7 1.7s.76 1.7 1.7 1.7Zm15.14 0h.56c.94 0 1.7-.76 1.7-1.7s-.76-1.7-1.7-1.7h-.56c-.94 0-1.7.76-1.7 1.7s.76 1.7 1.7 1.7Zm15.14 0h.56c.94 0 1.7-.76 1.7-1.7s-.76-1.7-1.7-1.7h-.56c-.94 0-1.7.76-1.7 1.7s.76 1.7 1.7 1.7Zm15.14 0h.56c.94 0 1.7-.76 1.7-1.7s-.76-1.7-1.7-1.7h-.56c-.94 0-1.7.76-1.7 1.7s.76 1.7 1.7 1.7Zm15.14 0h.56c.94 0 1.7-.76 1.7-1.7s-.76-1.7-1.7-1.7h-.56c-.94 0-1.7.76-1.7 1.7s.76 1.7 1.7 1.7Zm15.14 0h.56c.94 0 1.7-.76 1.7-1.7s-.76-1.7-1.7-1.7h-.56c-.94 0-1.7.76-1.7 1.7s.76 1.7 1.7 1.7Zm15.14 0h.56c.94 0 1.7-.76 1.7-1.7s-.76-1.7-1.7-1.7h-.56c-.94 0-1.7.76-1.7 1.7s.76 1.7 1.7 1.7Zm15.14 0h.56c.94 0 1.7-.76 1.7-1.7s-.76-1.7-1.7-1.7h-.56c-.94 0-1.7.76-1.7 1.7s.76 1.7 1.7 1.7Zm15.14 0h.56c.94 0 1.7-.76 1.7-1.7s-.76-1.7-1.7-1.7h-.56c-.94 0-1.7.76-1.7 1.7s.76 1.7 1.7 1.7Zm15.14 0h.56c.94 0 1.7-.76 1.7-1.7s-.76-1.7-1.7-1.7h-.56c-.94 0-1.7.76-1.7 1.7s.76 1.7 1.7 1.7Zm15.14 0h.56c.94 0 1.7-.76 1.7-1.7s-.76-1.7-1.7-1.7h-.56c-.94 0-1.7.76-1.7 1.7s.76 1.7 1.7 1.7Zm15.14 0h.56c.94 0 1.7-.76 1.7-1.7s-.76-1.7-1.7-1.7h-.56c-.94 0-1.7.76-1.7 1.7s.76 1.7 1.7 1.7Zm15.14 0h.56c.94 0 1.7-.76 1.7-1.7s-.76-1.7-1.7-1.7h-.56c-.94 0-1.7.76-1.7 1.7s.76 1.7 1.7 1.7Zm15.14 0h.56c.94 0 1.7-.76 1.7-1.7s-.76-1.7-1.7-1.7h-.56c-.94 0-1.7.76-1.7 1.7s.76 1.7 1.7 1.7Zm15.14 0h.56c.94 0 1.7-.76 1.7-1.7s-.76-1.7-1.7-1.7h-.56c-.94 0-1.7.76-1.7 1.7s.76 1.7 1.7 1.7Zm15.14 0h.56c.94 0 1.7-.76 1.7-1.7s-.76-1.7-1.7-1.7h-.56c-.94 0-1.7.76-1.7 1.7s.76 1.7 1.7 1.7Zm15.14 0h.56c.94 0 1.7-.76 1.7-1.7s-.76-1.7-1.7-1.7h-.56c-.94 0-1.7.76-1.7 1.7s.76 1.7 1.7 1.7Zm15.14 0h.56c.94 0 1.7-.76 1.7-1.7s-.76-1.7-1.7-1.7h-.56c-.94 0-1.7.76-1.7 1.7s.76 1.7 1.7 1.7Zm15.14 0h.56c.94 0 1.7-.76 1.7-1.7s-.76-1.7-1.7-1.7h-.56c-.94 0-1.7.76-1.7 1.7s.76 1.7 1.7 1.7Zm15.14 0h.56c.94 0 1.7-.76 1.7-1.7s-.76-1.7-1.7-1.7h-.56c-.94 0-1.7.76-1.7 1.7s.76 1.7 1.7 1.7Zm15.14 0h.56c.94 0 1.7-.76 1.7-1.7s-.76-1.7-1.7-1.7h-.56c-.94 0-1.7.76-1.7 1.7s.76 1.7 1.7 1.7Zm15.14 0h.56c.94 0 1.7-.76 1.7-1.7s-.76-1.7-1.7-1.7h-.56c-.94 0-1.7.76-1.7 1.7s.76 1.7 1.7 1.7Zm15.14 0h.56c.94 0 1.7-.76 1.7-1.7s-.76-1.7-1.7-1.7h-.56c-.94 0-1.7.76-1.7 1.7s.76 1.7 1.7 1.7Zm15.14 0h.56c.94 0 1.7-.76 1.7-1.7s-.76-1.7-1.7-1.7h-.56c-.94 0-1.7.76-1.7 1.7s.76 1.7 1.7 1.7Zm15.14 0h.56c.94 0 1.7-.76 1.7-1.7s-.76-1.7-1.7-1.7h-.56c-.94 0-1.7.76-1.7 1.7s.76 1.7 1.7 1.7ZM-175.44 96.34h.56c.94 0 1.7-.76 1.7-1.7s-.76-1.7-1.7-1.7h-.56c-.94 0-1.7.76-1.7 1.7s.76 1.7 1.7 1.7Zm15.14 0h.56c.94 0 1.7-.76 1.7-1.7s-.76-1.7-1.7-1.7h-.56c-.94 0-1.7.76-1.7 1.7s.76 1.7 1.7 1.7Zm15.14 0h.56c.94 0 1.7-.76 1.7-1.7s-.76-1.7-1.7-1.7h-.56c-.94 0-1.7.76-1.7 1.7s.76 1.7 1.7 1.7Zm15.14 0h.56c.94 0 1.7-.76 1.7-1.7s-.76-1.7-1.7-1.7h-.56c-.94 0-1.7.76-1.7 1.7s.76 1.7 1.7 1.7Zm15.14 0h.56c.94 0 1.7-.76 1.7-1.7s-.76-1.7-1.7-1.7h-.56c-.94 0-1.7.76-1.7 1.7s.76 1.7 1.7 1.7Zm15.14 0h.56c.94 0 1.7-.76 1.7-1.7s-.76-1.7-1.7-1.7h-.56c-.94 0-1.7.76-1.7 1.7s.76 1.7 1.7 1.7Zm15.14 0h.56c.94 0 1.7-.76 1.7-1.7s-.76-1.7-1.7-1.7h-.56c-.94 0-1.7.76-1.7 1.7s.76 1.7 1.7 1.7Zm15.14 0h.56c.94 0 1.7-.76 1.7-1.7s-.76-1.7-1.7-1.7h-.56c-.94 0-1.7.76-1.7 1.7s.76 1.7 1.7 1.7Zm15.14 0h.56c.94 0 1.7-.76 1.7-1.7s-.76-1.7-1.7-1.7h-.56c-.94 0-1.7.76-1.7 1.7s.76 1.7 1.7 1.7Zm15.14 0h.56c.94 0 1.7-.76 1.7-1.7s-.76-1.7-1.7-1.7h-.56c-.94 0-1.7.76-1.7 1.7s.76 1.7 1.7 1.7Zm15.14 0h.56c.94 0 1.7-.76 1.7-1.7s-.76-1.7-1.7-1.7h-.56c-.94 0-1.7.76-1.7 1.7s.76 1.7 1.7 1.7Zm15.14 0h.56c.94 0 1.7-.76 1.7-1.7s-.76-1.7-1.7-1.7h-.56c-.94 0-1.7.76-1.7 1.7s.76 1.7 1.7 1.7Zm15.14 0h.56c.94 0 1.7-.76 1.7-1.7s-.76-1.7-1.7-1.7h-.56c-.94 0-1.7.76-1.7 1.7s.76 1.7 1.7 1.7Zm15.14 0h.56c.94 0 1.7-.76 1.7-1.7s-.76-1.7-1.7-1.7h-.56c-.94 0-1.7.76-1.7 1.7s.76 1.7 1.7 1.7Zm15.14 0h.56c.94 0 1.7-.76 1.7-1.7s-.76-1.7-1.7-1.7h-.56c-.94 0-1.7.76-1.7 1.7s.76 1.7 1.7 1.7Zm15.14 0h.56c.94 0 1.7-.76 1.7-1.7s-.76-1.7-1.7-1.7h-.56c-.94 0-1.7.76-1.7 1.7s.76 1.7 1.7 1.7Zm15.14 0h.56c.94 0 1.7-.76 1.7-1.7s-.76-1.7-1.7-1.7h-.56c-.94 0-1.7.76-1.7 1.7s.76 1.7 1.7 1.7Zm15.14 0h.56c.94 0 1.7-.76 1.7-1.7s-.76-1.7-1.7-1.7h-.56c-.94 0-1.7.76-1.7 1.7s.76 1.7 1.7 1.7Zm15.14 0h.56c.94 0 1.7-.76 1.7-1.7s-.76-1.7-1.7-1.7h-.56c-.94 0-1.7.76-1.7 1.7s.76 1.7 1.7 1.7Zm15.14 0h.56c.94 0 1.7-.76 1.7-1.7s-.76-1.7-1.7-1.7h-.56c-.94 0-1.7.76-1.7 1.7s.76 1.7 1.7 1.7Zm15.14 0h.56c.94 0 1.7-.76 1.7-1.7s-.76-1.7-1.7-1.7h-.56c-.94 0-1.7.76-1.7 1.7s.76 1.7 1.7 1.7Zm15.14 0h.56c.94 0 1.7-.76 1.7-1.7s-.76-1.7-1.7-1.7h-.56c-.94 0-1.7.76-1.7 1.7s.76 1.7 1.7 1.7Zm15.14 0h.56c.94 0 1.7-.76 1.7-1.7s-.76-1.7-1.7-1.7h-.56c-.94 0-1.7.76-1.7 1.7s.76 1.7 1.7 1.7Zm15.14 0h.56c.94 0 1.7-.76 1.7-1.7s-.76-1.7-1.7-1.7h-.56c-.94 0-1.7.76-1.7 1.7s.76 1.7 1.7 1.7Zm15.14 0h.56c.94 0 1.7-.76 1.7-1.7s-.76-1.7-1.7-1.7h-.56c-.94 0-1.7.76-1.7 1.7s.76 1.7 1.7 1.7Zm15.14 0h.56c.94 0 1.7-.76 1.7-1.7s-.76-1.7-1.7-1.7h-.56c-.94 0-1.7.76-1.7 1.7s.76 1.7 1.7 1.7Zm15.14 0h.56c.94 0 1.7-.76 1.7-1.7s-.76-1.7-1.7-1.7h-.56c-.94 0-1.7.76-1.7 1.7s.76 1.7 1.7 1.7Zm15.14 0h.56c.94 0 1.7-.76 1.7-1.7s-.76-1.7-1.7-1.7h-.56c-.94 0-1.7.76-1.7 1.7s.76 1.7 1.7 1.7Zm15.14 0h.56c.94 0 1.7-.76 1.7-1.7s-.76-1.7-1.7-1.7h-.56c-.94 0-1.7.76-1.7 1.7s.76 1.7 1.7 1.7Zm15.14 0h.56c.94 0 1.7-.76 1.7-1.7s-.76-1.7-1.7-1.7h-.56c-.94 0-1.7.76-1.7 1.7s.76 1.7 1.7 1.7Zm15.14 0h.56c.94 0 1.7-.76 1.7-1.7s-.76-1.7-1.7-1.7h-.56c-.94 0-1.7.76-1.7 1.7s.76 1.7 1.7 1.7Zm15.14 0h.56c.94 0 1.7-.76 1.7-1.7s-.76-1.7-1.7-1.7h-.56c-.94 0-1.7.76-1.7 1.7s.76 1.7 1.7 1.7Zm15.14 0h.56c.94 0 1.7-.76 1.7-1.7s-.76-1.7-1.7-1.7h-.56c-.94 0-1.7.76-1.7 1.7s.76 1.7 1.7 1.7Zm15.14 0h.56c.94 0 1.7-.76 1.7-1.7s-.76-1.7-1.7-1.7h-.56c-.94 0-1.7.76-1.7 1.7s.76 1.7 1.7 1.7Zm15.14 0h.56c.94 0 1.7-.76 1.7-1.7s-.76-1.7-1.7-1.7h-.56c-.94 0-1.7.76-1.7 1.7s.76 1.7 1.7 1.7Zm15.14 0h.56c.94 0 1.7-.76 1.7-1.7s-.76-1.7-1.7-1.7h-.56c-.94 0-1.7.76-1.7 1.7s.76 1.7 1.7 1.7Zm15.14 0h.56c.94 0 1.7-.76 1.7-1.7s-.76-1.7-1.7-1.7h-.56c-.94 0-1.7.76-1.7 1.7s.76 1.7 1.7 1.7Zm15.14 0h.56c.94 0 1.7-.76 1.7-1.7s-.76-1.7-1.7-1.7h-.56c-.94 0-1.7.76-1.7 1.7s.76 1.7 1.7 1.7Zm15.14 0h.56c.94 0 1.7-.76 1.7-1.7s-.76-1.7-1.7-1.7h-.56c-.94 0-1.7.76-1.7 1.7s.76 1.7 1.7 1.7Zm15.14 0h.56c.94 0 1.7-.76 1.7-1.7s-.76-1.7-1.7-1.7h-.56c-.94 0-1.7.76-1.7 1.7s.76 1.7 1.7 1.7ZM-175.44 107.77h.56c.94 0 1.7-.76 1.7-1.7s-.76-1.7-1.7-1.7h-.56c-.94 0-1.7.76-1.7 1.7s.76 1.7 1.7 1.7Zm15.14 0h.56c.94 0 1.7-.76 1.7-1.7s-.76-1.7-1.7-1.7h-.56c-.94 0-1.7.76-1.7 1.7s.76 1.7 1.7 1.7Zm15.14 0h.56c.94 0 1.7-.76 1.7-1.7s-.76-1.7-1.7-1.7h-.56c-.94 0-1.7.76-1.7 1.7s.76 1.7 1.7 1.7Zm15.14 0h.56c.94 0 1.7-.76 1.7-1.7s-.76-1.7-1.7-1.7h-.56c-.94 0-1.7.76-1.7 1.7s.76 1.7 1.7 1.7Zm15.14 0h.56c.94 0 1.7-.76 1.7-1.7s-.76-1.7-1.7-1.7h-.56c-.94 0-1.7.76-1.7 1.7s.76 1.7 1.7 1.7Zm15.14 0h.56c.94 0 1.7-.76 1.7-1.7s-.76-1.7-1.7-1.7h-.56c-.94 0-1.7.76-1.7 1.7s.76 1.7 1.7 1.7Zm15.14 0h.56c.94 0 1.7-.76 1.7-1.7s-.76-1.7-1.7-1.7h-.56c-.94 0-1.7.76-1.7 1.7s.76 1.7 1.7 1.7Zm15.14 0h.56c.94 0 1.7-.76 1.7-1.7s-.76-1.7-1.7-1.7h-.56c-.94 0-1.7.76-1.7 1.7s.76 1.7 1.7 1.7Zm15.14 0h.56c.94 0 1.7-.76 1.7-1.7s-.76-1.7-1.7-1.7h-.56c-.94 0-1.7.76-1.7 1.7s.76 1.7 1.7 1.7Zm15.14 0h.56c.94 0 1.7-.76 1.7-1.7s-.76-1.7-1.7-1.7h-.56c-.94 0-1.7.76-1.7 1.7s.76 1.7 1.7 1.7Zm15.14 0h.56c.94 0 1.7-.76 1.7-1.7s-.76-1.7-1.7-1.7h-.56c-.94 0-1.7.76-1.7 1.7s.76 1.7 1.7 1.7Zm15.14 0h.56c.94 0 1.7-.76 1.7-1.7s-.76-1.7-1.7-1.7h-.56c-.94 0-1.7.76-1.7 1.7s.76 1.7 1.7 1.7Zm15.14 0h.56c.94 0 1.7-.76 1.7-1.7s-.76-1.7-1.7-1.7h-.56c-.94 0-1.7.76-1.7 1.7s.76 1.7 1.7 1.7Zm15.14 0h.56c.94 0 1.7-.76 1.7-1.7s-.76-1.7-1.7-1.7h-.56c-.94 0-1.7.76-1.7 1.7s.76 1.7 1.7 1.7Zm15.14 0h.56c.94 0 1.7-.76 1.7-1.7s-.76-1.7-1.7-1.7h-.56c-.94 0-1.7.76-1.7 1.7s.76 1.7 1.7 1.7Zm15.14 0h.56c.94 0 1.7-.76 1.7-1.7s-.76-1.7-1.7-1.7h-.56c-.94 0-1.7.76-1.7 1.7s.76 1.7 1.7 1.7Zm15.14 0h.56c.94 0 1.7-.76 1.7-1.7s-.76-1.7-1.7-1.7h-.56c-.94 0-1.7.76-1.7 1.7s.76 1.7 1.7 1.7Zm15.14 0h.56c.94 0 1.7-.76 1.7-1.7s-.76-1.7-1.7-1.7h-.56c-.94 0-1.7.76-1.7 1.7s.76 1.7 1.7 1.7Zm15.14 0h.56c.94 0 1.7-.76 1.7-1.7s-.76-1.7-1.7-1.7h-.56c-.94 0-1.7.76-1.7 1.7s.76 1.7 1.7 1.7Zm15.14 0h.56c.94 0 1.7-.76 1.7-1.7s-.76-1.7-1.7-1.7h-.56c-.94 0-1.7.76-1.7 1.7s.76 1.7 1.7 1.7Zm15.14 0h.56c.94 0 1.7-.76 1.7-1.7s-.76-1.7-1.7-1.7h-.56c-.94 0-1.7.76-1.7 1.7s.76 1.7 1.7 1.7Zm15.14 0h.56c.94 0 1.7-.76 1.7-1.7s-.76-1.7-1.7-1.7h-.56c-.94 0-1.7.76-1.7 1.7s.76 1.7 1.7 1.7Zm15.14 0h.56c.94 0 1.7-.76 1.7-1.7s-.76-1.7-1.7-1.7h-.56c-.94 0-1.7.76-1.7 1.7s.76 1.7 1.7 1.7Zm15.14 0h.56c.94 0 1.7-.76 1.7-1.7s-.76-1.7-1.7-1.7h-.56c-.94 0-1.7.76-1.7 1.7s.76 1.7 1.7 1.7Zm15.14 0h.56c.94 0 1.7-.76 1.7-1.7s-.76-1.7-1.7-1.7h-.56c-.94 0-1.7.76-1.7 1.7s.76 1.7 1.7 1.7Zm15.14 0h.56c.94 0 1.7-.76 1.7-1.7s-.76-1.7-1.7-1.7h-.56c-.94 0-1.7.76-1.7 1.7s.76 1.7 1.7 1.7Zm15.14 0h.56c.94 0 1.7-.76 1.7-1.7s-.76-1.7-1.7-1.7h-.56c-.94 0-1.7.76-1.7 1.7s.76 1.7 1.7 1.7Zm15.14 0h.56c.94 0 1.7-.76 1.7-1.7s-.76-1.7-1.7-1.7h-.56c-.94 0-1.7.76-1.7 1.7s.76 1.7 1.7 1.7Zm15.14 0h.56c.94 0 1.7-.76 1.7-1.7s-.76-1.7-1.7-1.7h-.56c-.94 0-1.7.76-1.7 1.7s.76 1.7 1.7 1.7Zm15.14 0h.56c.94 0 1.7-.76 1.7-1.7s-.76-1.7-1.7-1.7h-.56c-.94 0-1.7.76-1.7 1.7s.76 1.7 1.7 1.7Zm15.14 0h.56c.94 0 1.7-.76 1.7-1.7s-.76-1.7-1.7-1.7h-.56c-.94 0-1.7.76-1.7 1.7s.76 1.7 1.7 1.7Zm15.14 0h.56c.94 0 1.7-.76 1.7-1.7s-.76-1.7-1.7-1.7h-.56c-.94 0-1.7.76-1.7 1.7s.76 1.7 1.7 1.7Zm15.14 0h.56c.94 0 1.7-.76 1.7-1.7s-.76-1.7-1.7-1.7h-.56c-.94 0-1.7.76-1.7 1.7s.76 1.7 1.7 1.7Zm15.14 0h.56c.94 0 1.7-.76 1.7-1.7s-.76-1.7-1.7-1.7h-.56c-.94 0-1.7.76-1.7 1.7s.76 1.7 1.7 1.7Zm15.14 0h.56c.94 0 1.7-.76 1.7-1.7s-.76-1.7-1.7-1.7h-.56c-.94 0-1.7.76-1.7 1.7s.76 1.7 1.7 1.7Zm15.14 0h.56c.94 0 1.7-.76 1.7-1.7s-.76-1.7-1.7-1.7h-.56c-.94 0-1.7.76-1.7 1.7s.76 1.7 1.7 1.7Zm15.14 0h.56c.94 0 1.7-.76 1.7-1.7s-.76-1.7-1.7-1.7h-.56c-.94 0-1.7.76-1.7 1.7s.76 1.7 1.7 1.7Zm15.14 0h.56c.94 0 1.7-.76 1.7-1.7s-.76-1.7-1.7-1.7h-.56c-.94 0-1.7.76-1.7 1.7s.76 1.7 1.7 1.7Zm15.14 0h.56c.94 0 1.7-.76 1.7-1.7s-.76-1.7-1.7-1.7h-.56c-.94 0-1.7.76-1.7 1.7s.76 1.7 1.7 1.7Zm15.14 0h.56c.94 0 1.7-.76 1.7-1.7s-.76-1.7-1.7-1.7h-.56c-.94 0-1.7.76-1.7 1.7s.76 1.7 1.7 1.7ZM-175.44 119.21h.56c.94 0 1.7-.76 1.7-1.7s-.76-1.7-1.7-1.7h-.56c-.94 0-1.7.76-1.7 1.7s.76 1.7 1.7 1.7Zm15.14 0h.56c.94 0 1.7-.76 1.7-1.7s-.76-1.7-1.7-1.7h-.56c-.94 0-1.7.76-1.7 1.7s.76 1.7 1.7 1.7Zm15.14 0h.56c.94 0 1.7-.76 1.7-1.7s-.76-1.7-1.7-1.7h-.56c-.94 0-1.7.76-1.7 1.7s.76 1.7 1.7 1.7Zm15.14 0h.56c.94 0 1.7-.76 1.7-1.7s-.76-1.7-1.7-1.7h-.56c-.94 0-1.7.76-1.7 1.7s.76 1.7 1.7 1.7Zm15.14 0h.56c.94 0 1.7-.76 1.7-1.7s-.76-1.7-1.7-1.7h-.56c-.94 0-1.7.76-1.7 1.7s.76 1.7 1.7 1.7Zm15.14 0h.56c.94 0 1.7-.76 1.7-1.7s-.76-1.7-1.7-1.7h-.56c-.94 0-1.7.76-1.7 1.7s.76 1.7 1.7 1.7Zm15.14 0h.56c.94 0 1.7-.76 1.7-1.7s-.76-1.7-1.7-1.7h-.56c-.94 0-1.7.76-1.7 1.7s.76 1.7 1.7 1.7Zm15.14 0h.56c.94 0 1.7-.76 1.7-1.7s-.76-1.7-1.7-1.7h-.56c-.94 0-1.7.76-1.7 1.7s.76 1.7 1.7 1.7Zm15.14 0h.56c.94 0 1.7-.76 1.7-1.7s-.76-1.7-1.7-1.7h-.56c-.94 0-1.7.76-1.7 1.7s.76 1.7 1.7 1.7Zm15.14 0h.56c.94 0 1.7-.76 1.7-1.7s-.76-1.7-1.7-1.7h-.56c-.94 0-1.7.76-1.7 1.7s.76 1.7 1.7 1.7Zm15.14 0h.56c.94 0 1.7-.76 1.7-1.7s-.76-1.7-1.7-1.7h-.56c-.94 0-1.7.76-1.7 1.7s.76 1.7 1.7 1.7Zm15.14 0h.56c.94 0 1.7-.76 1.7-1.7s-.76-1.7-1.7-1.7h-.56c-.94 0-1.7.76-1.7 1.7s.76 1.7 1.7 1.7Zm15.14 0h.56c.94 0 1.7-.76 1.7-1.7s-.76-1.7-1.7-1.7h-.56c-.94 0-1.7.76-1.7 1.7s.76 1.7 1.7 1.7Zm15.14 0h.56c.94 0 1.7-.76 1.7-1.7s-.76-1.7-1.7-1.7h-.56c-.94 0-1.7.76-1.7 1.7s.76 1.7 1.7 1.7Zm15.14 0h.56c.94 0 1.7-.76 1.7-1.7s-.76-1.7-1.7-1.7h-.56c-.94 0-1.7.76-1.7 1.7s.76 1.7 1.7 1.7Zm15.14 0h.56c.94 0 1.7-.76 1.7-1.7s-.76-1.7-1.7-1.7h-.56c-.94 0-1.7.76-1.7 1.7s.76 1.7 1.7 1.7Zm15.14 0h.56c.94 0 1.7-.76 1.7-1.7s-.76-1.7-1.7-1.7h-.56c-.94 0-1.7.76-1.7 1.7s.76 1.7 1.7 1.7Zm15.14 0h.56c.94 0 1.7-.76 1.7-1.7s-.76-1.7-1.7-1.7h-.56c-.94 0-1.7.76-1.7 1.7s.76 1.7 1.7 1.7Zm15.14 0h.56c.94 0 1.7-.76 1.7-1.7s-.76-1.7-1.7-1.7h-.56c-.94 0-1.7.76-1.7 1.7s.76 1.7 1.7 1.7Zm15.14 0h.56c.94 0 1.7-.76 1.7-1.7s-.76-1.7-1.7-1.7h-.56c-.94 0-1.7.76-1.7 1.7s.76 1.7 1.7 1.7Zm15.14 0h.56c.94 0 1.7-.76 1.7-1.7s-.76-1.7-1.7-1.7h-.56c-.94 0-1.7.76-1.7 1.7s.76 1.7 1.7 1.7Zm15.14 0h.56c.94 0 1.7-.76 1.7-1.7s-.76-1.7-1.7-1.7h-.56c-.94 0-1.7.76-1.7 1.7s.76 1.7 1.7 1.7Zm15.14 0h.56c.94 0 1.7-.76 1.7-1.7s-.76-1.7-1.7-1.7h-.56c-.94 0-1.7.76-1.7 1.7s.76 1.7 1.7 1.7Zm15.14 0h.56c.94 0 1.7-.76 1.7-1.7s-.76-1.7-1.7-1.7h-.56c-.94 0-1.7.76-1.7 1.7s.76 1.7 1.7 1.7Zm15.14 0h.56c.94 0 1.7-.76 1.7-1.7s-.76-1.7-1.7-1.7h-.56c-.94 0-1.7.76-1.7 1.7s.76 1.7 1.7 1.7Zm15.14 0h.56c.94 0 1.7-.76 1.7-1.7s-.76-1.7-1.7-1.7h-.56c-.94 0-1.7.76-1.7 1.7s.76 1.7 1.7 1.7Zm15.14 0h.56c.94 0 1.7-.76 1.7-1.7s-.76-1.7-1.7-1.7h-.56c-.94 0-1.7.76-1.7 1.7s.76 1.7 1.7 1.7Zm15.14 0h.56c.94 0 1.7-.76 1.7-1.7s-.76-1.7-1.7-1.7h-.56c-.94 0-1.7.76-1.7 1.7s.76 1.7 1.7 1.7Zm15.14 0h.56c.94 0 1.7-.76 1.7-1.7s-.76-1.7-1.7-1.7h-.56c-.94 0-1.7.76-1.7 1.7s.76 1.7 1.7 1.7Zm15.14 0h.56c.94 0 1.7-.76 1.7-1.7s-.76-1.7-1.7-1.7h-.56c-.94 0-1.7.76-1.7 1.7s.76 1.7 1.7 1.7Zm15.14 0h.56c.94 0 1.7-.76 1.7-1.7s-.76-1.7-1.7-1.7h-.56c-.94 0-1.7.76-1.7 1.7s.76 1.7 1.7 1.7Zm15.14 0h.56c.94 0 1.7-.76 1.7-1.7s-.76-1.7-1.7-1.7h-.56c-.94 0-1.7.76-1.7 1.7s.76 1.7 1.7 1.7Zm15.14 0h.56c.94 0 1.7-.76 1.7-1.7s-.76-1.7-1.7-1.7h-.56c-.94 0-1.7.76-1.7 1.7s.76 1.7 1.7 1.7Zm15.14 0h.56c.94 0 1.7-.76 1.7-1.7s-.76-1.7-1.7-1.7h-.56c-.94 0-1.7.76-1.7 1.7s.76 1.7 1.7 1.7Zm15.14 0h.56c.94 0 1.7-.76 1.7-1.7s-.76-1.7-1.7-1.7h-.56c-.94 0-1.7.76-1.7 1.7s.76 1.7 1.7 1.7Zm15.14 0h.56c.94 0 1.7-.76 1.7-1.7s-.76-1.7-1.7-1.7h-.56c-.94 0-1.7.76-1.7 1.7s.76 1.7 1.7 1.7Zm15.14 0h.56c.94 0 1.7-.76 1.7-1.7s-.76-1.7-1.7-1.7h-.56c-.94 0-1.7.76-1.7 1.7s.76 1.7 1.7 1.7Zm15.14 0h.56c.94 0 1.7-.76 1.7-1.7s-.76-1.7-1.7-1.7h-.56c-.94 0-1.7.76-1.7 1.7s.76 1.7 1.7 1.7Zm15.14 0h.56c.94 0 1.7-.76 1.7-1.7s-.76-1.7-1.7-1.7h-.56c-.94 0-1.7.76-1.7 1.7s.76 1.7 1.7 1.7Zm15.14 0h.56c.94 0 1.7-.76 1.7-1.7s-.76-1.7-1.7-1.7h-.56c-.94 0-1.7.76-1.7 1.7s.76 1.7 1.7 1.7ZM-175.44 130.65h.56c.94 0 1.7-.76 1.7-1.7s-.76-1.7-1.7-1.7h-.56c-.94 0-1.7.76-1.7 1.7s.76 1.7 1.7 1.7Zm15.14 0h.56c.94 0 1.7-.76 1.7-1.7s-.76-1.7-1.7-1.7h-.56c-.94 0-1.7.76-1.7 1.7s.76 1.7 1.7 1.7Zm15.14 0h.56c.94 0 1.7-.76 1.7-1.7s-.76-1.7-1.7-1.7h-.56c-.94 0-1.7.76-1.7 1.7s.76 1.7 1.7 1.7Zm15.14 0h.56c.94 0 1.7-.76 1.7-1.7s-.76-1.7-1.7-1.7h-.56c-.94 0-1.7.76-1.7 1.7s.76 1.7 1.7 1.7Zm15.14 0h.56c.94 0 1.7-.76 1.7-1.7s-.76-1.7-1.7-1.7h-.56c-.94 0-1.7.76-1.7 1.7s.76 1.7 1.7 1.7Zm15.14 0h.56c.94 0 1.7-.76 1.7-1.7s-.76-1.7-1.7-1.7h-.56c-.94 0-1.7.76-1.7 1.7s.76 1.7 1.7 1.7Zm15.14 0h.56c.94 0 1.7-.76 1.7-1.7s-.76-1.7-1.7-1.7h-.56c-.94 0-1.7.76-1.7 1.7s.76 1.7 1.7 1.7Zm15.14 0h.56c.94 0 1.7-.76 1.7-1.7s-.76-1.7-1.7-1.7h-.56c-.94 0-1.7.76-1.7 1.7s.76 1.7 1.7 1.7Zm15.14 0h.56c.94 0 1.7-.76 1.7-1.7s-.76-1.7-1.7-1.7h-.56c-.94 0-1.7.76-1.7 1.7s.76 1.7 1.7 1.7Zm15.14 0h.56c.94 0 1.7-.76 1.7-1.7s-.76-1.7-1.7-1.7h-.56c-.94 0-1.7.76-1.7 1.7s.76 1.7 1.7 1.7Zm15.14 0h.56c.94 0 1.7-.76 1.7-1.7s-.76-1.7-1.7-1.7h-.56c-.94 0-1.7.76-1.7 1.7s.76 1.7 1.7 1.7Zm15.14 0h.56c.94 0 1.7-.76 1.7-1.7s-.76-1.7-1.7-1.7h-.56c-.94 0-1.7.76-1.7 1.7s.76 1.7 1.7 1.7Zm15.14 0h.56c.94 0 1.7-.76 1.7-1.7s-.76-1.7-1.7-1.7h-.56c-.94 0-1.7.76-1.7 1.7s.76 1.7 1.7 1.7Zm15.14 0h.56c.94 0 1.7-.76 1.7-1.7s-.76-1.7-1.7-1.7h-.56c-.94 0-1.7.76-1.7 1.7s.76 1.7 1.7 1.7Zm15.14 0h.56c.94 0 1.7-.76 1.7-1.7s-.76-1.7-1.7-1.7h-.56c-.94 0-1.7.76-1.7 1.7s.76 1.7 1.7 1.7Zm15.14 0h.56c.94 0 1.7-.76 1.7-1.7s-.76-1.7-1.7-1.7h-.56c-.94 0-1.7.76-1.7 1.7s.76 1.7 1.7 1.7Zm15.14 0h.56c.94 0 1.7-.76 1.7-1.7s-.76-1.7-1.7-1.7h-.56c-.94 0-1.7.76-1.7 1.7s.76 1.7 1.7 1.7Zm15.14 0h.56c.94 0 1.7-.76 1.7-1.7s-.76-1.7-1.7-1.7h-.56c-.94 0-1.7.76-1.7 1.7s.76 1.7 1.7 1.7Zm15.14 0h.56c.94 0 1.7-.76 1.7-1.7s-.76-1.7-1.7-1.7h-.56c-.94 0-1.7.76-1.7 1.7s.76 1.7 1.7 1.7Zm15.14 0h.56c.94 0 1.7-.76 1.7-1.7s-.76-1.7-1.7-1.7h-.56c-.94 0-1.7.76-1.7 1.7s.76 1.7 1.7 1.7Zm15.14 0h.56c.94 0 1.7-.76 1.7-1.7s-.76-1.7-1.7-1.7h-.56c-.94 0-1.7.76-1.7 1.7s.76 1.7 1.7 1.7Zm15.14 0h.56c.94 0 1.7-.76 1.7-1.7s-.76-1.7-1.7-1.7h-.56c-.94 0-1.7.76-1.7 1.7s.76 1.7 1.7 1.7Zm15.14 0h.56c.94 0 1.7-.76 1.7-1.7s-.76-1.7-1.7-1.7h-.56c-.94 0-1.7.76-1.7 1.7s.76 1.7 1.7 1.7Zm15.14 0h.56c.94 0 1.7-.76 1.7-1.7s-.76-1.7-1.7-1.7h-.56c-.94 0-1.7.76-1.7 1.7s.76 1.7 1.7 1.7Zm15.14 0h.56c.94 0 1.7-.76 1.7-1.7s-.76-1.7-1.7-1.7h-.56c-.94 0-1.7.76-1.7 1.7s.76 1.7 1.7 1.7Zm15.14 0h.56c.94 0 1.7-.76 1.7-1.7s-.76-1.7-1.7-1.7h-.56c-.94 0-1.7.76-1.7 1.7s.76 1.7 1.7 1.7Zm15.14 0h.56c.94 0 1.7-.76 1.7-1.7s-.76-1.7-1.7-1.7h-.56c-.94 0-1.7.76-1.7 1.7s.76 1.7 1.7 1.7Zm15.14 0h.56c.94 0 1.7-.76 1.7-1.7s-.76-1.7-1.7-1.7h-.56c-.94 0-1.7.76-1.7 1.7s.76 1.7 1.7 1.7Zm15.14 0h.56c.94 0 1.7-.76 1.7-1.7s-.76-1.7-1.7-1.7h-.56c-.94 0-1.7.76-1.7 1.7s.76 1.7 1.7 1.7Zm15.14 0h.56c.94 0 1.7-.76 1.7-1.7s-.76-1.7-1.7-1.7h-.56c-.94 0-1.7.76-1.7 1.7s.76 1.7 1.7 1.7Zm15.14 0h.56c.94 0 1.7-.76 1.7-1.7s-.76-1.7-1.7-1.7h-.56c-.94 0-1.7.76-1.7 1.7s.76 1.7 1.7 1.7Zm15.14 0h.56c.94 0 1.7-.76 1.7-1.7s-.76-1.7-1.7-1.7h-.56c-.94 0-1.7.76-1.7 1.7s.76 1.7 1.7 1.7Zm15.14 0h.56c.94 0 1.7-.76 1.7-1.7s-.76-1.7-1.7-1.7h-.56c-.94 0-1.7.76-1.7 1.7s.76 1.7 1.7 1.7Zm15.14 0h.56c.94 0 1.7-.76 1.7-1.7s-.76-1.7-1.7-1.7h-.56c-.94 0-1.7.76-1.7 1.7s.76 1.7 1.7 1.7Zm15.14 0h.56c.94 0 1.7-.76 1.7-1.7s-.76-1.7-1.7-1.7h-.56c-.94 0-1.7.76-1.7 1.7s.76 1.7 1.7 1.7Zm15.14 0h.56c.94 0 1.7-.76 1.7-1.7s-.76-1.7-1.7-1.7h-.56c-.94 0-1.7.76-1.7 1.7s.76 1.7 1.7 1.7Zm15.14 0h.56c.94 0 1.7-.76 1.7-1.7s-.76-1.7-1.7-1.7h-.56c-.94 0-1.7.76-1.7 1.7s.76 1.7 1.7 1.7Zm15.14 0h.56c.94 0 1.7-.76 1.7-1.7s-.76-1.7-1.7-1.7h-.56c-.94 0-1.7.76-1.7 1.7s.76 1.7 1.7 1.7Zm15.14 0h.56c.94 0 1.7-.76 1.7-1.7s-.76-1.7-1.7-1.7h-.56c-.94 0-1.7.76-1.7 1.7s.76 1.7 1.7 1.7Zm15.14 0h.56c.94 0 1.7-.76 1.7-1.7s-.76-1.7-1.7-1.7h-.56c-.94 0-1.7.76-1.7 1.7s.76 1.7 1.7 1.7ZM-175.44 142.09h.56c.94 0 1.7-.76 1.7-1.7s-.76-1.7-1.7-1.7h-.56c-.94 0-1.7.76-1.7 1.7s.76 1.7 1.7 1.7Zm15.14 0h.56c.94 0 1.7-.76 1.7-1.7s-.76-1.7-1.7-1.7h-.56c-.94 0-1.7.76-1.7 1.7s.76 1.7 1.7 1.7Zm15.14 0h.56c.94 0 1.7-.76 1.7-1.7s-.76-1.7-1.7-1.7h-.56c-.94 0-1.7.76-1.7 1.7s.76 1.7 1.7 1.7Zm15.14 0h.56c.94 0 1.7-.76 1.7-1.7s-.76-1.7-1.7-1.7h-.56c-.94 0-1.7.76-1.7 1.7s.76 1.7 1.7 1.7Zm15.14 0h.56c.94 0 1.7-.76 1.7-1.7s-.76-1.7-1.7-1.7h-.56c-.94 0-1.7.76-1.7 1.7s.76 1.7 1.7 1.7Zm15.14 0h.56c.94 0 1.7-.76 1.7-1.7s-.76-1.7-1.7-1.7h-.56c-.94 0-1.7.76-1.7 1.7s.76 1.7 1.7 1.7Zm15.14 0h.56c.94 0 1.7-.76 1.7-1.7s-.76-1.7-1.7-1.7h-.56c-.94 0-1.7.76-1.7 1.7s.76 1.7 1.7 1.7Zm15.14 0h.56c.94 0 1.7-.76 1.7-1.7s-.76-1.7-1.7-1.7h-.56c-.94 0-1.7.76-1.7 1.7s.76 1.7 1.7 1.7Zm15.14 0h.56c.94 0 1.7-.76 1.7-1.7s-.76-1.7-1.7-1.7h-.56c-.94 0-1.7.76-1.7 1.7s.76 1.7 1.7 1.7Zm15.14 0h.56c.94 0 1.7-.76 1.7-1.7s-.76-1.7-1.7-1.7h-.56c-.94 0-1.7.76-1.7 1.7s.76 1.7 1.7 1.7Zm15.14 0h.56c.94 0 1.7-.76 1.7-1.7s-.76-1.7-1.7-1.7h-.56c-.94 0-1.7.76-1.7 1.7s.76 1.7 1.7 1.7Zm15.14 0h.56c.94 0 1.7-.76 1.7-1.7s-.76-1.7-1.7-1.7h-.56c-.94 0-1.7.76-1.7 1.7s.76 1.7 1.7 1.7Zm15.14 0h.56c.94 0 1.7-.76 1.7-1.7s-.76-1.7-1.7-1.7h-.56c-.94 0-1.7.76-1.7 1.7s.76 1.7 1.7 1.7Zm15.14 0h.56c.94 0 1.7-.76 1.7-1.7s-.76-1.7-1.7-1.7h-.56c-.94 0-1.7.76-1.7 1.7s.76 1.7 1.7 1.7Zm15.14 0h.56c.94 0 1.7-.76 1.7-1.7s-.76-1.7-1.7-1.7h-.56c-.94 0-1.7.76-1.7 1.7s.76 1.7 1.7 1.7Zm15.14 0h.56c.94 0 1.7-.76 1.7-1.7s-.76-1.7-1.7-1.7h-.56c-.94 0-1.7.76-1.7 1.7s.76 1.7 1.7 1.7Zm15.14 0h.56c.94 0 1.7-.76 1.7-1.7s-.76-1.7-1.7-1.7h-.56c-.94 0-1.7.76-1.7 1.7s.76 1.7 1.7 1.7Zm15.14 0h.56c.94 0 1.7-.76 1.7-1.7s-.76-1.7-1.7-1.7h-.56c-.94 0-1.7.76-1.7 1.7s.76 1.7 1.7 1.7Zm15.14 0h.56c.94 0 1.7-.76 1.7-1.7s-.76-1.7-1.7-1.7h-.56c-.94 0-1.7.76-1.7 1.7s.76 1.7 1.7 1.7Zm15.14 0h.56c.94 0 1.7-.76 1.7-1.7s-.76-1.7-1.7-1.7h-.56c-.94 0-1.7.76-1.7 1.7s.76 1.7 1.7 1.7Zm15.14 0h.56c.94 0 1.7-.76 1.7-1.7s-.76-1.7-1.7-1.7h-.56c-.94 0-1.7.76-1.7 1.7s.76 1.7 1.7 1.7Zm15.14 0h.56c.94 0 1.7-.76 1.7-1.7s-.76-1.7-1.7-1.7h-.56c-.94 0-1.7.76-1.7 1.7s.76 1.7 1.7 1.7Zm15.14 0h.56c.94 0 1.7-.76 1.7-1.7s-.76-1.7-1.7-1.7h-.56c-.94 0-1.7.76-1.7 1.7s.76 1.7 1.7 1.7Zm15.14 0h.56c.94 0 1.7-.76 1.7-1.7s-.76-1.7-1.7-1.7h-.56c-.94 0-1.7.76-1.7 1.7s.76 1.7 1.7 1.7Zm15.14 0h.56c.94 0 1.7-.76 1.7-1.7s-.76-1.7-1.7-1.7h-.56c-.94 0-1.7.76-1.7 1.7s.76 1.7 1.7 1.7Zm15.14 0h.56c.94 0 1.7-.76 1.7-1.7s-.76-1.7-1.7-1.7h-.56c-.94 0-1.7.76-1.7 1.7s.76 1.7 1.7 1.7Zm15.14 0h.56c.94 0 1.7-.76 1.7-1.7s-.76-1.7-1.7-1.7h-.56c-.94 0-1.7.76-1.7 1.7s.76 1.7 1.7 1.7Zm15.14 0h.56c.94 0 1.7-.76 1.7-1.7s-.76-1.7-1.7-1.7h-.56c-.94 0-1.7.76-1.7 1.7s.76 1.7 1.7 1.7Zm15.14 0h.56c.94 0 1.7-.76 1.7-1.7s-.76-1.7-1.7-1.7h-.56c-.94 0-1.7.76-1.7 1.7s.76 1.7 1.7 1.7Zm15.14 0h.56c.94 0 1.7-.76 1.7-1.7s-.76-1.7-1.7-1.7h-.56c-.94 0-1.7.76-1.7 1.7s.76 1.7 1.7 1.7Zm15.14 0h.56c.94 0 1.7-.76 1.7-1.7s-.76-1.7-1.7-1.7h-.56c-.94 0-1.7.76-1.7 1.7s.76 1.7 1.7 1.7Zm15.14 0h.56c.94 0 1.7-.76 1.7-1.7s-.76-1.7-1.7-1.7h-.56c-.94 0-1.7.76-1.7 1.7s.76 1.7 1.7 1.7Zm15.14 0h.56c.94 0 1.7-.76 1.7-1.7s-.76-1.7-1.7-1.7h-.56c-.94 0-1.7.76-1.7 1.7s.76 1.7 1.7 1.7Zm15.14 0h.56c.94 0 1.7-.76 1.7-1.7s-.76-1.7-1.7-1.7h-.56c-.94 0-1.7.76-1.7 1.7s.76 1.7 1.7 1.7Zm15.14 0h.56c.94 0 1.7-.76 1.7-1.7s-.76-1.7-1.7-1.7h-.56c-.94 0-1.7.76-1.7 1.7s.76 1.7 1.7 1.7Zm15.14 0h.56c.94 0 1.7-.76 1.7-1.7s-.76-1.7-1.7-1.7h-.56c-.94 0-1.7.76-1.7 1.7s.76 1.7 1.7 1.7Zm15.14 0h.56c.94 0 1.7-.76 1.7-1.7s-.76-1.7-1.7-1.7h-.56c-.94 0-1.7.76-1.7 1.7s.76 1.7 1.7 1.7Zm15.14 0h.56c.94 0 1.7-.76 1.7-1.7s-.76-1.7-1.7-1.7h-.56c-.94 0-1.7.76-1.7 1.7s.76 1.7 1.7 1.7Zm15.14 0h.56c.94 0 1.7-.76 1.7-1.7s-.76-1.7-1.7-1.7h-.56c-.94 0-1.7.76-1.7 1.7s.76 1.7 1.7 1.7Zm15.14 0h.56c.94 0 1.7-.76 1.7-1.7s-.76-1.7-1.7-1.7h-.56c-.94 0-1.7.76-1.7 1.7s.76 1.7 1.7 1.7ZM-175.44 153.52h.56c.94 0 1.7-.76 1.7-1.7s-.76-1.7-1.7-1.7h-.56c-.94 0-1.7.76-1.7 1.7s.76 1.7 1.7 1.7Zm15.14 0h.56c.94 0 1.7-.76 1.7-1.7s-.76-1.7-1.7-1.7h-.56c-.94 0-1.7.76-1.7 1.7s.76 1.7 1.7 1.7Zm15.14 0h.56c.94 0 1.7-.76 1.7-1.7s-.76-1.7-1.7-1.7h-.56c-.94 0-1.7.76-1.7 1.7s.76 1.7 1.7 1.7Zm15.14 0h.56c.94 0 1.7-.76 1.7-1.7s-.76-1.7-1.7-1.7h-.56c-.94 0-1.7.76-1.7 1.7s.76 1.7 1.7 1.7Zm15.14 0h.56c.94 0 1.7-.76 1.7-1.7s-.76-1.7-1.7-1.7h-.56c-.94 0-1.7.76-1.7 1.7s.76 1.7 1.7 1.7Zm15.14 0h.56c.94 0 1.7-.76 1.7-1.7s-.76-1.7-1.7-1.7h-.56c-.94 0-1.7.76-1.7 1.7s.76 1.7 1.7 1.7Zm15.14 0h.56c.94 0 1.7-.76 1.7-1.7s-.76-1.7-1.7-1.7h-.56c-.94 0-1.7.76-1.7 1.7s.76 1.7 1.7 1.7Zm15.14 0h.56c.94 0 1.7-.76 1.7-1.7s-.76-1.7-1.7-1.7h-.56c-.94 0-1.7.76-1.7 1.7s.76 1.7 1.7 1.7Zm15.14 0h.56c.94 0 1.7-.76 1.7-1.7s-.76-1.7-1.7-1.7h-.56c-.94 0-1.7.76-1.7 1.7s.76 1.7 1.7 1.7Zm15.14 0h.56c.94 0 1.7-.76 1.7-1.7s-.76-1.7-1.7-1.7h-.56c-.94 0-1.7.76-1.7 1.7s.76 1.7 1.7 1.7Zm15.14 0h.56c.94 0 1.7-.76 1.7-1.7s-.76-1.7-1.7-1.7h-.56c-.94 0-1.7.76-1.7 1.7s.76 1.7 1.7 1.7Zm15.14 0h.56c.94 0 1.7-.76 1.7-1.7s-.76-1.7-1.7-1.7h-.56c-.94 0-1.7.76-1.7 1.7s.76 1.7 1.7 1.7Zm15.14 0h.56c.94 0 1.7-.76 1.7-1.7s-.76-1.7-1.7-1.7h-.56c-.94 0-1.7.76-1.7 1.7s.76 1.7 1.7 1.7Zm15.14 0h.56c.94 0 1.7-.76 1.7-1.7s-.76-1.7-1.7-1.7h-.56c-.94 0-1.7.76-1.7 1.7s.76 1.7 1.7 1.7Zm15.14 0h.56c.94 0 1.7-.76 1.7-1.7s-.76-1.7-1.7-1.7h-.56c-.94 0-1.7.76-1.7 1.7s.76 1.7 1.7 1.7Zm15.14 0h.56c.94 0 1.7-.76 1.7-1.7s-.76-1.7-1.7-1.7h-.56c-.94 0-1.7.76-1.7 1.7s.76 1.7 1.7 1.7Zm15.14 0h.56c.94 0 1.7-.76 1.7-1.7s-.76-1.7-1.7-1.7h-.56c-.94 0-1.7.76-1.7 1.7s.76 1.7 1.7 1.7Zm15.14 0h.56c.94 0 1.7-.76 1.7-1.7s-.76-1.7-1.7-1.7h-.56c-.94 0-1.7.76-1.7 1.7s.76 1.7 1.7 1.7Zm15.14 0h.56c.94 0 1.7-.76 1.7-1.7s-.76-1.7-1.7-1.7h-.56c-.94 0-1.7.76-1.7 1.7s.76 1.7 1.7 1.7Zm15.14 0h.56c.94 0 1.7-.76 1.7-1.7s-.76-1.7-1.7-1.7h-.56c-.94 0-1.7.76-1.7 1.7s.76 1.7 1.7 1.7Zm15.14 0h.56c.94 0 1.7-.76 1.7-1.7s-.76-1.7-1.7-1.7h-.56c-.94 0-1.7.76-1.7 1.7s.76 1.7 1.7 1.7Zm15.14 0h.56c.94 0 1.7-.76 1.7-1.7s-.76-1.7-1.7-1.7h-.56c-.94 0-1.7.76-1.7 1.7s.76 1.7 1.7 1.7Zm15.14 0h.56c.94 0 1.7-.76 1.7-1.7s-.76-1.7-1.7-1.7h-.56c-.94 0-1.7.76-1.7 1.7s.76 1.7 1.7 1.7Zm15.14 0h.56c.94 0 1.7-.76 1.7-1.7s-.76-1.7-1.7-1.7h-.56c-.94 0-1.7.76-1.7 1.7s.76 1.7 1.7 1.7Zm15.14 0h.56c.94 0 1.7-.76 1.7-1.7s-.76-1.7-1.7-1.7h-.56c-.94 0-1.7.76-1.7 1.7s.76 1.7 1.7 1.7Zm15.14 0h.56c.94 0 1.7-.76 1.7-1.7s-.76-1.7-1.7-1.7h-.56c-.94 0-1.7.76-1.7 1.7s.76 1.7 1.7 1.7Zm15.14 0h.56c.94 0 1.7-.76 1.7-1.7s-.76-1.7-1.7-1.7h-.56c-.94 0-1.7.76-1.7 1.7s.76 1.7 1.7 1.7Zm15.14 0h.56c.94 0 1.7-.76 1.7-1.7s-.76-1.7-1.7-1.7h-.56c-.94 0-1.7.76-1.7 1.7s.76 1.7 1.7 1.7Zm15.14 0h.56c.94 0 1.7-.76 1.7-1.7s-.76-1.7-1.7-1.7h-.56c-.94 0-1.7.76-1.7 1.7s.76 1.7 1.7 1.7Zm15.14 0h.56c.94 0 1.7-.76 1.7-1.7s-.76-1.7-1.7-1.7h-.56c-.94 0-1.7.76-1.7 1.7s.76 1.7 1.7 1.7Zm15.14 0h.56c.94 0 1.7-.76 1.7-1.7s-.76-1.7-1.7-1.7h-.56c-.94 0-1.7.76-1.7 1.7s.76 1.7 1.7 1.7Zm15.14 0h.56c.94 0 1.7-.76 1.7-1.7s-.76-1.7-1.7-1.7h-.56c-.94 0-1.7.76-1.7 1.7s.76 1.7 1.7 1.7Zm15.14 0h.56c.94 0 1.7-.76 1.7-1.7s-.76-1.7-1.7-1.7h-.56c-.94 0-1.7.76-1.7 1.7s.76 1.7 1.7 1.7Zm15.14 0h.56c.94 0 1.7-.76 1.7-1.7s-.76-1.7-1.7-1.7h-.56c-.94 0-1.7.76-1.7 1.7s.76 1.7 1.7 1.7Zm15.14 0h.56c.94 0 1.7-.76 1.7-1.7s-.76-1.7-1.7-1.7h-.56c-.94 0-1.7.76-1.7 1.7s.76 1.7 1.7 1.7Zm15.14 0h.56c.94 0 1.7-.76 1.7-1.7s-.76-1.7-1.7-1.7h-.56c-.94 0-1.7.76-1.7 1.7s.76 1.7 1.7 1.7Zm15.14 0h.56c.94 0 1.7-.76 1.7-1.7s-.76-1.7-1.7-1.7h-.56c-.94 0-1.7.76-1.7 1.7s.76 1.7 1.7 1.7Zm15.14 0h.56c.94 0 1.7-.76 1.7-1.7s-.76-1.7-1.7-1.7h-.56c-.94 0-1.7.76-1.7 1.7s.76 1.7 1.7 1.7Zm15.14 0h.56c.94 0 1.7-.76 1.7-1.7s-.76-1.7-1.7-1.7h-.56c-.94 0-1.7.76-1.7 1.7s.76 1.7 1.7 1.7Zm15.14 0h.56c.94 0 1.7-.76 1.7-1.7s-.76-1.7-1.7-1.7h-.56c-.94 0-1.7.76-1.7 1.7s.76 1.7 1.7 1.7Z"/></g></g><defs><clipPath id="a"><path fill="#fff" d="M0 0h316v160H0z"/></clipPath></defs></svg>