<svg width="24" height="24" viewBox="0 0 24 24" fill="none" xmlns="http://www.w3.org/2000/svg"><path fill-rule="evenodd" clip-rule="evenodd" d="M7.75 6.5a4.25 4.25 0 1 1 8.5 0 4.25 4.25 0 0 1-8.5 0ZM12 3.75a2.75 2.75 0 1 0 0 5.5 2.75 2.75 0 0 0 0-5.5ZM6.615 3.198a.75.75 0 0 1-.186 1.044 2.748 2.748 0 0 0 .154 4.615.75.75 0 1 1-.774 1.285 4.248 4.248 0 0 1-.238-7.13.75.75 0 0 1 1.044.186ZM17.385 3.198a.75.75 0 0 1 1.044-.186A4.246 4.246 0 0 1 20.25 6.5a4.246 4.246 0 0 1-1.82 3.488.75.75 0 1 1-.859-1.23 2.746 2.746 0 0 0 1.18-2.258c0-.934-.466-1.76-1.18-2.258a.75.75 0 0 1-.186-1.044ZM11.973 13.25h.054c.91 0 1.63 0 2.213.04.596.04 1.104.125 1.578.322a4.75 4.75 0 0 1 2.57 2.57c.197.474.281.982.322 1.578.04.584.04 1.304.04 2.213V21a.75.75 0 0 1-.75.75H6a.75.75 0 0 1-.75-.75v-1.027c0-.91 0-1.63.04-2.213.04-.596.125-1.104.322-1.578a4.75 4.75 0 0 1 2.57-2.57m3.79-.362c-.908 0-1.628 0-2.212.04l2.213-.04Zm-2.212.04c-.596.04-1.104.125-1.578.322l1.578-.322Zm.102 1.496c-.52.036-.845.103-1.106.211a3.25 3.25 0 0 0-1.759 1.76c-.108.26-.175.586-.21 1.105-.037.527-.037 1.196-.037 2.138v.25h10.5V20c0-.942 0-1.611-.036-2.138-.036-.52-.103-.845-.211-1.106a3.25 3.25 0 0 0-1.76-1.759c-.26-.108-.586-.175-1.105-.21-.527-.037-1.196-.037-2.138-.037s-1.611 0-2.138.036ZM19.148 14.095a.75.75 0 0 1 1.01-.327 4.75 4.75 0 0 1 2.075 2.076c.28.55.402 1.154.46 1.868.058.697.058 1.563.058 2.655V21a.75.75 0 0 1-1.5 0v-.6c0-1.133-.001-1.937-.052-2.566-.051-.62-.148-1.005-.303-1.31m-1.748-2.429a.75.75 0 0 0 .328 1.01l-.328-1.01Zm.328 1.01a3.252 3.252 0 0 1 1.42 1.42" fill="#000"/><path d="m20.32 15.723-1.172-1.628.328 1.01c.315.16.6.369.844.618Z" fill="#000"/><path fill-rule="evenodd" clip-rule="evenodd" d="M4.852 14.095a.75.75 0 0 1-.327 1.01 3.25 3.25 0 0 0-1.42 1.42c-.156.304-.252.688-.303 1.309-.051.63-.052 1.433-.052 2.566v.6a.75.75 0 0 1-1.5 0v-.633c0-1.092 0-1.958.057-2.655.058-.714.18-1.317.46-1.868a4.75 4.75 0 0 1 2.077-2.076.75.75 0 0 1 1.008.327Z" fill="#000"/></svg>