<svg width="144" height="23" viewBox="0 0 144 23" fill="none" xmlns="http://www.w3.org/2000/svg"><g clip-path="url(#a)" fill="#000"><path d="M140.6 0h-1.33l4.65 2.95v-.84L140.6 0ZM133.95 0h-1.33l11.3 7.17v-.85L133.95 0ZM127.3 0h-1.33l17.95 11.39v-.85L127.3 0ZM120.65 0h-1.33l24.6 15.6v-.84L120.65 0ZM114 0h-1.33l31.25 19.82v-.84L114 0ZM107.35 0h-1.33l35.32 22.4h1.33L107.35 0ZM100.7 0h-1.33l35.32 22.4h1.33L100.7 0ZM94.05 0h-1.33l35.32 22.4h1.33L94.05 0ZM87.4 0h-1.33l35.32 22.4h1.33L87.4 0ZM80.75 0h-1.33l35.32 22.4h1.33L80.75 0ZM74.1 0h-1.33l35.32 22.4h1.33L74.1 0ZM67.45 0h-1.33l35.32 22.4h1.33L67.45 0ZM60.8 0h-1.33l35.32 22.4h1.33L60.8 0ZM54.15 0h-1.33l35.32 22.4h1.33L54.15 0ZM47.5 0h-1.33l35.32 22.4h1.33L47.5 0ZM40.86 0h-1.33l35.31 22.4h1.33L40.86 0ZM34.21 0h-1.33l35.31 22.4h1.33L34.21 0ZM27.56 0h-1.33l35.31 22.4h1.33L27.56 0ZM20.91 0h-1.33L54.9 22.4h1.32L20.91 0ZM14.26 0h-1.33l35.32 22.4h1.33L14.26 0ZM7.61 0H6.28L41.6 22.4h1.33L7.61 0ZM.96 0H0v.24L34.95 22.4h1.33L.96 0ZM0 3.61v.84L28.3 22.4h1.33L0 3.61ZM0 7.83v.84L21.65 22.4h1.33L0 7.83ZM0 12.04v.85l15 9.51h1.33L0 12.04ZM0 16.26v.85l8.35 5.29h1.33L0 16.26ZM0 20.48v.84l1.7 1.08h1.33L0 20.48Z"/></g><defs><clipPath id="a"><path fill="#fff" d="M0 0h143.92v22.4H0z"/></clipPath></defs></svg>