<svg width="316" height="316" viewBox="0 0 316 316" fill="none" xmlns="http://www.w3.org/2000/svg"><mask id="a" style="mask-type:alpha" maskUnits="userSpaceOnUse" x="0" y="0" width="316" height="316"><circle cx="158" cy="158" r="158" fill="#D9D9D9"/></mask><g mask="url(#a)" fill="#FFDF34"><path d="M18.91-98.78 18-97l521.82 266.646.91-1.78L18.91-98.781ZM13.91-88.78 13-87l521.82 266.646.91-1.78L13.91-88.781ZM8.91-78.78 8-77l521.82 266.646.91-1.78L8.91-78.781ZM3.91-69.78 3-68l521.82 266.646.91-1.78L3.91-69.781ZM-2.09-59.78-3-58l521.82 266.646.91-1.78L-2.09-59.781ZM-7.09-49.78-8-48l521.82 266.646.91-1.78L-7.09-49.781ZM-12.09-39.78-13-38l521.82 266.646.91-1.78L-12.09-39.781ZM-17.09-29.78-18-28l521.82 266.646.91-1.78L-17.09-29.781ZM-22.09-19.78-23-18l521.82 266.646.91-1.78L-22.09-19.781ZM-27.09-10.78-28-9l521.82 266.646.91-1.78L-27.09-10.781ZM-32.09-.78-33 1l521.82 266.646.91-1.78L-32.09-.781ZM-37.09 9.22-38 11l521.82 266.646.91-1.78L-37.09 9.219ZM-42.09 19.22-43 21l521.82 266.646.91-1.78L-42.09 19.219ZM-47.09 29.22-48 31l521.82 266.646.91-1.78L-47.09 29.219ZM-52.09 38.22-53 40l521.82 266.646.91-1.78L-52.09 38.219ZM-57.09 48.22-58 50l521.82 266.646.91-1.78L-57.09 48.219ZM-62.09 58.22-63 60l521.82 266.646.91-1.78L-62.09 58.219ZM-67.09 68.22-68 70l521.82 266.646.91-1.78L-67.09 68.219ZM-72.09 78.22-73 80l521.82 266.646.91-1.78L-72.09 78.219ZM-77.09 88.22-78 90l521.82 266.646.91-1.78L-77.09 88.219ZM-82.09 97.22-83 99l521.82 266.646.91-1.78L-82.09 97.219ZM-87.09 107.219-88 109l521.82 266.646.91-1.78-521.82-266.647ZM-92.09 117.219-93 119l521.82 266.646.91-1.78-521.82-266.647ZM-97.09 127.219-98 129l521.82 266.646.91-1.78-521.82-266.647ZM-102.09 137.219-103 139l521.82 266.646.91-1.78-521.82-266.647ZM-107.09 146.219-108 148l521.82 266.646.91-1.78-521.82-266.647ZM-112.09 156.219-113 158l521.82 266.646.91-1.78-521.82-266.647ZM-117.09 166.219-118 168l521.82 266.646.91-1.78-521.82-266.647ZM-122.09 176.219-123 178l521.82 266.646.91-1.78-521.82-266.647ZM-127.09 186.219-128 188l521.82 266.646.91-1.78-521.82-266.647ZM-132.09 196.219-133 198l521.82 266.646.91-1.78-521.82-266.647Z"/></g></svg>