<svg width="316" height="291" viewBox="0 0 316 291" fill="none" xmlns="http://www.w3.org/2000/svg"><g clip-path="url(#a)"><mask id="b" style="mask-type:alpha" maskUnits="userSpaceOnUse" x="0" y="0" width="316" height="316"><circle cx="158" cy="158" r="158" fill="#D9D9D9"/></mask><g mask="url(#b)" fill="#000"><path d="m18.456-98.999-1 1.96 521.073 266.302 1.001-1.959L18.456-98.999ZM13.442-89.183l-1.002 1.959 521.075 266.303 1.001-1.959L13.442-89.183ZM8.43-79.364l-1 1.959 521.074 266.303 1.001-1.959L8.431-79.364ZM3.416-69.559l-1.001 1.96 521.074 266.302 1.001-1.959L3.416-69.559ZM-1.602-59.744l-1.002 1.959 521.075 266.303 1.001-1.959L-1.602-59.744ZM-6.608-49.924l-1.001 1.959 521.074 266.303 1.001-1.959L-6.608-49.924ZM-11.628-40.11l-1 1.96 521.073 266.302 1.001-1.959L-11.628-40.11ZM-16.652-30.305l-1.001 1.96L503.42 237.957l1.001-1.959L-16.652-30.304ZM-21.662-20.485l-1.001 1.959L498.41 247.777l1.001-1.959L-21.662-20.485ZM-26.677-10.67l-1 1.96 521.074 266.302 1.001-1.959L-26.677-10.67ZM-31.696-.855l-1.001 1.959 521.074 266.303 1.001-1.959L-31.696-.855ZM-36.702 8.955l-1.001 1.959L483.37 277.217l1.001-1.959L-36.702 8.955ZM-41.72 18.769l-1.002 1.959L478.353 287.03l1.001-1.959L-41.72 18.769ZM-46.735 28.584l-1.001 1.96 521.074 266.302 1.001-1.959L-46.735 28.584ZM-51.741 38.395l-1.001 1.958 521.074 266.303 1.001-1.959L-51.741 38.394ZM-56.77 48.209l-1.002 1.959L463.304 316.47l1.001-1.959L-56.77 48.209ZM-61.785 58.014l-1.001 1.96 521.074 266.302 1.001-1.959L-61.785 58.014ZM-66.796 67.843l-1 1.96 521.073 266.302 1.002-1.959L-66.796 67.843ZM-71.81 77.649l-1.001 1.959L448.262 345.91l1.001-1.959L-71.81 77.649ZM-76.829 87.463l-1.001 1.96 521.074 266.302 1.001-1.959L-76.829 87.463ZM-81.835 97.273l-1 1.96 521.073 266.302 1.001-1.959L-81.835 97.273ZM-86.854 107.097l-1.002 1.959L433.22 375.359l1.001-1.959-521.074-266.303ZM-91.869 116.903l-1.001 1.959 521.074 266.303 1.001-1.959-521.074-266.303ZM-96.888 126.722l-1.002 1.959 521.075 266.303 1.001-1.959-521.074-266.303ZM-101.903 136.527l-1.001 1.959L418.17 404.789l1.001-1.959-521.074-266.303ZM-106.923 146.352l-1.001 1.959L413.15 414.614l1.002-1.959-521.075-266.303ZM-111.929 156.162l-1.001 1.959 521.075 266.303 1.001-1.959-521.075-266.303ZM-116.943 165.967l-1.001 1.959L403.13 434.229l1.001-1.959-521.074-266.303ZM-121.963 175.782l-1.001 1.959L398.11 444.044l1.002-1.959-521.075-266.303ZM-126.968 185.602l-1.001 1.959 521.074 266.303 1.002-1.959-521.075-266.303ZM-131.987 195.416l-1.001 1.959 521.074 266.303 1.001-1.959-521.074-266.303Z"/></g></g><defs><clipPath id="a"><path fill="#fff" d="M0 0h316v291H0z"/></clipPath></defs></svg>