<svg width="316" height="316" viewBox="0 0 316 316" fill="none" xmlns="http://www.w3.org/2000/svg"><mask id="a" style="mask-type:alpha" maskUnits="userSpaceOnUse" x="0" y="0" width="316" height="316"><circle r="158" transform="matrix(1 0 0 -1 158 158)" fill="#D9D9D9"/></mask><g mask="url(#a)" fill="#000"><path d="m18.456 414.999-1-1.959 521.073-266.303 1.001 1.959L18.456 414.999ZM13.442 405.183l-1.002-1.959 521.075-266.303 1.001 1.959L13.442 405.183ZM8.43 395.364l-1-1.959 521.074-266.303 1.001 1.959L8.431 395.364ZM3.416 385.559 2.415 383.6l521.074-266.303 1.001 1.959L3.416 385.559ZM-1.602 375.744l-1.002-1.959 521.075-266.303 1.001 1.959L-1.602 375.744ZM-6.608 365.924l-1.001-1.959L513.465 97.662l1.001 1.96L-6.608 365.923ZM-11.628 356.11l-1-1.959L508.444 87.848l1.001 1.959L-11.628 356.11ZM-16.652 346.304l-1.001-1.959L503.42 78.042l1.001 1.96-521.074 266.302ZM-21.662 336.485l-1.001-1.959L498.41 68.223l1.001 1.96-521.074 266.302ZM-26.677 326.67l-1-1.959L493.396 58.408l1.001 1.959L-26.677 326.67ZM-31.696 316.855l-1.001-1.959L488.377 48.593l1.001 1.96-521.074 266.302ZM-36.702 307.045l-1.001-1.959L483.37 38.783l1.001 1.96-521.074 266.302ZM-41.72 297.231l-1.002-1.959L478.353 28.969l1.001 1.959L-41.72 297.231ZM-46.735 287.416l-1.001-1.959L473.338 19.154l1.001 1.959-521.074 266.303ZM-51.741 277.605l-1.001-1.959L468.332 9.344l1.001 1.959-521.074 266.302ZM-56.77 267.791l-1.002-1.959L463.304-.471l1.001 1.959L-56.77 267.791ZM-61.785 257.986l-1.001-1.959L458.288-10.276l1.001 1.959-521.074 266.303ZM-66.796 248.157l-1-1.959L453.276-20.105l1.002 1.959-521.075 266.303ZM-71.81 238.351l-1.001-1.959L448.262-29.911l1.001 1.96L-71.81 238.35ZM-76.829 228.537l-1.001-1.959L443.244-39.725l1.001 1.96-521.074 266.302ZM-81.835 218.727l-1-1.959L438.237-49.535l1.001 1.959-521.074 266.303ZM-86.854 208.902l-1.002-1.959L433.22-59.36l1.001 1.96-521.074 266.302ZM-91.869 199.097l-1.001-1.959L428.204-69.165l1.001 1.96-521.074 266.302ZM-96.888 189.278l-1.002-1.959L423.185-78.984l1.001 1.96-521.074 266.302ZM-101.903 179.473l-1.001-1.959L418.17-88.789l1.001 1.959-521.074 266.303ZM-106.923 169.648l-1.001-1.959L413.15-98.614l1.002 1.96-521.075 266.302ZM-111.929 159.838l-1.001-1.959 521.075-266.303 1.001 1.959-521.075 266.303ZM-116.943 150.033l-1.001-1.959L403.13-118.229l1.001 1.959-521.074 266.303ZM-121.963 140.218l-1.001-1.959L398.11-128.044l1.002 1.959-521.075 266.303ZM-126.968 130.398l-1.001-1.959 521.074-266.303 1.002 1.959-521.075 266.303ZM-131.987 120.584l-1.001-1.959 521.074-266.303 1.001 1.959-521.074 266.303Z"/></g></svg>