<svg width="148" height="58" viewBox="0 0 148 58" fill="none" xmlns="http://www.w3.org/2000/svg"><g clip-path="url(#a)"><path d="M145.529 50.625H10.169l-7.015 6.64C1.964 58.392 0 57.551 0 55.916V2.464A2.47 2.47 0 0 1 2.473 0h143.054A2.468 2.468 0 0 1 148 2.464V48.16a2.468 2.468 0 0 1-2.473 2.464l.002.002Z" fill="#fff"/><path d="M51.254 30.514h3.843v-6.062l-3.305.157v-3.673l5.107-.262c1.506-.078 2.34.735 2.34 2.203v7.635h3.843v3.672H51.254v-3.672.002Zm3.038-12.988c0-1.338.94-2.098 2.527-2.098 1.586 0 2.58.762 2.58 2.098 0 1.336-.994 2.098-2.58 2.098-1.587 0-2.527-.735-2.527-2.098ZM72.293 24.972l11.412 9.212h-6.283l-7.92-6.517v6.517h-4.297V15.732h4.296v6.544l7.92-6.544h6.284L72.293 24.97v.002Z" fill="#000"/><path d="M91.753 15.428c5.927 0 9.541 4.128 9.541 9.516s-3.614 9.543-9.54 9.543c-5.928 0-9.567-4.128-9.567-9.543 0-5.415 3.615-9.515 9.566-9.515Zm0 15.377c3.535 0 5.289-2.288 5.289-5.863 0-3.575-1.754-5.836-5.289-5.836-3.535 0-5.313 2.288-5.313 5.836 0 3.548 1.78 5.863 5.313 5.863ZM121.008 24.945c0 7.958-5.263 9.24-10.308 9.24h-6.979V15.73h6.979c5.047 0 10.308 1.282 10.308 9.212v.002Zm-4.296 0c0-5.287-2.656-5.547-6.012-5.547h-2.684v11.124h2.684c3.356 0 6.012-.26 6.012-5.574v-.003ZM129.394 20.571c4.235 0 7.2 2.465 7.2 6.521v1.325h-10.329c0 1.538 1.133 2.623 3.588 2.623 1.511 0 2.644-.53 2.913-1.537h4.315c-.268 1.935-2.508 4.984-7.228 4.984-5.232 0-7.632-3.34-7.632-7.13 0-4.242 2.94-6.786 7.175-6.786h-.002Zm3.156 5.46c0-1.006-.756-2.013-3.156-2.013-2.4 0-3.129 1.007-3.129 2.014h6.285Z" fill="#000"/><path d="M43.433 40.235H12.369a2.047 2.047 0 0 1-2.059-2.037v-26.48c0-1.126.921-2.037 2.059-2.037h31.064c1.137 0 2.058.911 2.058 2.037v26.478c0 1.125-.921 2.037-2.058 2.037v.002Zm-29.006-4.077h26.945v-22.4H14.427v22.4Z" fill="#FFDF34"/><path d="m20.315 32.067-2.422-2.383 4.965-4.973-4.936-4.729 2.369-2.436 6.18 5.92a1.684 1.684 0 0 1 .026 2.409l-6.18 6.192h-.002ZM37.606 28.437H28.81v3.63h8.796v-3.63Z" fill="#000"/></g><defs><clipPath id="a"><path fill="#fff" d="M0 0h148v57.781H0z"/></clipPath></defs></svg>