<svg width="132" height="32" viewBox="0 0 132 32" fill="none" xmlns="http://www.w3.org/2000/svg"><g clip-path="url(#a)"><path d="M42.477 21.896h3.967v-6.409l-3.412.167v-3.885l5.27-.276c1.555-.084 2.414.776 2.414 2.33v8.073h3.968v3.884H42.477v-3.884Zm3.135-13.732c0-1.415.972-2.22 2.607-2.22 1.635 0 2.663.805 2.663 2.22s-1.025 2.22-2.663 2.22-2.607-.776-2.607-2.22ZM64.228 16.014l11.79 9.766h-6.49l-8.184-6.907v6.907h-4.438V6.22h4.438v6.935l8.183-6.935h6.492l-11.791 9.794Z" fill="#000"/><path d="M84.618 5.944c6.185 0 9.96 4.354 9.96 10.043 0 5.689-3.772 10.07-9.96 10.07-6.188 0-9.987-4.354-9.987-10.07s3.772-10.043 9.987-10.043Zm0 16.229c3.689 0 5.52-2.414 5.52-6.186s-1.831-6.159-5.52-6.159c-3.689 0-5.55 2.414-5.55 6.159 0 3.745 1.859 6.185 5.55 6.185ZM114.941 15.987c0 8.432-5.437 9.793-10.653 9.793h-7.214V6.22h7.214c5.216 0 10.653 1.359 10.653 9.767Zm-4.438 0c0-5.603-2.747-5.882-6.215-5.882h-2.773v11.79h2.773c3.468 0 6.215-.276 6.215-5.908ZM123.709 11.493c4.355 0 7.407 2.58 7.407 6.824v1.388H120.49c0 1.608 1.166 2.746 3.689 2.746 1.555 0 2.72-.555 2.996-1.608h4.438c-.276 2.025-2.58 5.216-7.434 5.216-5.383 0-7.85-3.495-7.85-7.463 0-4.438 3.023-7.1 7.38-7.1v-.003Zm3.246 5.715c0-1.055-.776-2.107-3.246-2.107-2.47 0-3.219 1.055-3.219 2.107h6.465Z" fill="#000"/><path d="M34.333 32H2.134A2.133 2.133 0 0 1 0 29.867V2.135C0 .955.955 0 2.134 0h32.199c1.18 0 2.134.955 2.134 2.135v27.731c0 1.18-.954 2.135-2.134 2.135ZM4.269 27.733h27.93V4.268H4.268v23.462Z" fill="#FFDF34"/><path d="m10.268 23.668-2.54-2.516 5.204-5.253-5.175-4.994 2.482-2.572 6.48 6.251c.344.333.54.789.545 1.266.005.477-.181.937-.516 1.278l-6.48 6.54ZM28.433 19.8h-9.088v3.868h9.088v-3.867Z" fill="#000"/></g><defs><clipPath id="a"><path fill="#fff" d="M0 0h131.615v32H0z"/></clipPath></defs></svg>