<svg width="41" height="40" viewBox="0 0 41 40" fill="none" xmlns="http://www.w3.org/2000/svg"><g clip-path="url(#a)"><path d="M20.013 40a3.97 3.97 0 0 1-2.795-1.17L1.169 22.77a3.943 3.943 0 0 1 0-5.605L17.218 1.116c1.478-1.492 4.126-1.492 5.605 0L38.87 17.178c1.546 1.532 1.546 4.059 0 5.604L22.823 38.844c-.74.74-1.761 1.17-2.796 1.17L20.013 40ZM9.556 19.973 20.013 30.43 30.47 19.973 20.013 9.516 9.556 19.973Z" fill="#000"/></g><defs><clipPath id="a"><path fill="#fff" d="M0 0h40.027v40H0z"/></clipPath></defs></svg>