<svg width="119" height="25" viewBox="0 0 119 25" fill="none" xmlns="http://www.w3.org/2000/svg"><g clip-path="url(#a)"><path d="M89.1 24.65c-8.67 0-13.02-5.74-16.85-10.81-3.58-4.73-6.67-8.82-12.85-8.82s-9.27 4.09-12.85 8.82c-3.83 5.07-8.18 10.81-16.85 10.81-8.67 0-13.02-5.74-16.85-10.81C9.27 9.11 6.18 5.02 0 5.02V0c8.67 0 13.02 5.74 16.85 10.81 3.58 4.73 6.67 8.82 12.85 8.82s9.27-4.09 12.85-8.82C46.38 5.74 50.72 0 59.4 0c8.68 0 13.02 5.74 16.85 10.81 3.58 4.73 6.67 8.82 12.85 8.82s9.27-4.09 12.85-8.82C105.78 5.74 110.13 0 118.8 0v5.02c-6.18 0-9.27 4.09-12.85 8.82-3.83 5.07-8.18 10.81-16.85 10.81Z" fill="#000"/></g><defs><clipPath id="a"><path fill="#fff" d="M0 0h118.8v24.65H0z"/></clipPath></defs></svg>