<svg width="40" height="40" viewBox="0 0 40 40" fill="none" xmlns="http://www.w3.org/2000/svg"><path fill-rule="evenodd" clip-rule="evenodd" d="M20 4.583C11.485 4.583 4.583 11.485 4.583 20c0 8.514 6.902 15.417 15.417 15.417 8.514 0 15.416-6.903 15.416-15.417S28.514 4.583 20 4.583ZM2.083 20c0-9.895 8.022-17.917 17.917-17.917 9.895 0 17.916 8.022 17.916 17.917 0 9.895-8.021 17.917-17.916 17.917S2.083 29.895 2.083 20Z" fill="#000"/><path fill-rule="evenodd" clip-rule="evenodd" d="M20 29.583c.69 0 1.25.56 1.25 1.25v5.834a1.25 1.25 0 0 1-2.5 0v-5.834c0-.69.56-1.25 1.25-1.25ZM28.75 20c0-.69.56-1.25 1.25-1.25h6.667a1.25 1.25 0 0 1 0 2.5H30c-.69 0-1.25-.56-1.25-1.25ZM2.083 20c0-.69.56-1.25 1.25-1.25h5.833a1.25 1.25 0 1 1 0 2.5H3.333c-.69 0-1.25-.56-1.25-1.25ZM20 2.083c.69 0 1.25.56 1.25 1.25v5.834a1.25 1.25 0 1 1-2.5 0V3.333c0-.69.56-1.25 1.25-1.25Z" fill="#000"/></svg>