<svg width="40" height="40" viewBox="0 0 40 40" fill="none" xmlns="http://www.w3.org/2000/svg"><path fill-rule="evenodd" clip-rule="evenodd" d="M19.591 2.985a1.25 1.25 0 0 1 .817 0l16.667 5.762a1.25 1.25 0 0 1 .009 2.36l-16.667 5.905c-.27.095-.565.095-.835 0L2.916 11.107a1.25 1.25 0 0 1 .009-2.36L19.59 2.985ZM7.117 9.943 20 14.507l12.883-4.564L20 5.49 7.117 9.943Z" fill="#000"/><path fill-rule="evenodd" clip-rule="evenodd" d="M2.154 16.254a1.25 1.25 0 0 1 1.592-.767L20 21.176l16.254-5.69a1.25 1.25 0 0 1 .826 2.36L20.413 23.68a1.25 1.25 0 0 1-.826 0L2.92 17.846a1.25 1.25 0 0 1-.766-1.592Z" fill="#000"/><path fill-rule="evenodd" clip-rule="evenodd" d="M2.154 22.92a1.25 1.25 0 0 1 1.592-.767L20 27.844l16.254-5.69a1.25 1.25 0 0 1 .826 2.36l-16.667 5.833a1.25 1.25 0 0 1-.826 0L2.92 24.514a1.25 1.25 0 0 1-.766-1.593Z" fill="#000"/><path fill-rule="evenodd" clip-rule="evenodd" d="M2.154 29.587a1.25 1.25 0 0 1 1.592-.767L20 34.509l16.254-5.689a1.25 1.25 0 0 1 .826 2.36l-16.667 5.833a1.25 1.25 0 0 1-.826 0L2.92 31.18a1.25 1.25 0 0 1-.766-1.593Z" fill="#000"/></svg>