<svg width="40" height="40" viewBox="0 0 40 40" fill="none" xmlns="http://www.w3.org/2000/svg"><path fill-rule="evenodd" clip-rule="evenodd" d="M2.083 6.667c0-.69.56-1.25 1.25-1.25h33.333a1.25 1.25 0 1 1 0 2.5H3.333c-.69 0-1.25-.56-1.25-1.25Z" fill="#000"/><path fill-rule="evenodd" clip-rule="evenodd" d="M5.417 6.667c0-.69.56-1.25 1.25-1.25h26.667c.69 0 1.25.56 1.25 1.25v21.666c0 .69-.56 1.25-1.25 1.25H6.667c-.69 0-1.25-.56-1.25-1.25V6.667Zm2.5 1.25v19.166h24.167V7.917H7.917Z" fill="#000"/><path fill-rule="evenodd" clip-rule="evenodd" d="M17.45 12.45a1.25 1.25 0 0 1 1.767 0l4.167 4.166a1.25 1.25 0 0 1 0 1.768l-4.167 4.166a1.25 1.25 0 0 1-1.768-1.767l3.283-3.283-3.283-3.283a1.25 1.25 0 0 1 0-1.768ZM19.116 27.45a1.25 1.25 0 0 1 1.768 0l6.666 6.666a1.25 1.25 0 1 1-1.768 1.768L20 30.1l-5.783 5.783a1.25 1.25 0 1 1-1.768-1.768l6.667-6.667Z" fill="#000"/></svg>